<svg width="149" height="75" viewBox="0 0 149 75" fill="none" xmlns="http://www.w3.org/2000/svg">
<g clip-path="url(#clip0)">
<path d="M100.609 39.291C100.581 39.1441 100.581 39.0182 101.326 38.7875C102.063 38.5637 103.848 37.9553 104.936 37.361C106.025 36.7596 106.201 36.6757 106.461 36.8435C106.714 37.0113 106.643 37.4169 106.643 37.7106V40.6406C107.044 39.9902 108.35 37.8295 109.383 37.1931C110.198 36.6897 110.486 36.6477 110.992 36.6407C111.596 36.6267 113.029 37.0043 113.092 38.5078C113.141 39.6826 112.27 40.1581 111.715 40.0811C111.272 40.0182 110.949 39.6126 110.689 39.2001C110.423 38.7875 110.001 38.5357 109.58 38.6826C109.158 38.8294 106.791 40.3539 106.657 42.5286C106.559 44.1299 106.657 49.1228 106.657 49.1228C106.657 49.878 106.945 50.1717 107.29 50.3745C107.627 50.5773 108.87 50.5912 109.221 50.6402C109.573 50.6891 109.559 50.7731 109.559 50.8779C109.559 50.9828 109.559 51.0388 109.242 51.0388H100.911C100.644 51.0388 100.539 50.9898 100.539 50.829C100.539 50.6122 100.89 50.6542 101.157 50.6122C101.424 50.5773 102.829 50.6891 103.236 49.9899C103.531 49.5283 103.496 48.7871 103.496 48.7871L103.454 40.0182C103.454 39.3119 103.243 39.207 103.047 39.0952C102.85 38.9833 102.52 38.9203 101.832 39.1581C101.178 39.3609 100.729 39.5637 100.609 39.291Z" fill="#718096"/>
<path d="M71.4937 39.2933C71.3813 39.0765 71.5921 38.9367 72.2102 38.7758C72.8986 38.594 74.4089 38.1395 75.6031 37.4612C76.7972 36.7899 77.008 36.72 77.2608 36.7969C77.5137 36.8808 77.4926 37.3283 77.4926 37.685V49.0342C77.4926 49.6705 77.5769 49.9363 77.865 50.202C78.153 50.4677 78.8835 50.6215 79.8248 50.6215C80.2533 50.6215 80.3797 50.6705 80.3797 50.8523C80.3797 51.0341 80.2462 51.0341 80.0777 51.0341H71.8098C71.557 51.0341 71.4937 50.9222 71.4937 50.8173C71.4937 50.6845 71.6061 50.6006 71.9925 50.6006C72.3156 50.6006 73.8118 50.7125 74.149 49.9363C74.2825 49.6426 74.3457 49.23 74.3457 48.8454V39.8457C74.3457 39.1604 73.8118 38.8597 73.2007 39.0066C72.4772 39.1744 71.6412 39.58 71.4937 39.2933Z" fill="#718096"/>
<path d="M75.702 31.4547C76.8259 31.4547 77.732 30.5456 77.732 29.4338C77.732 28.3149 76.8189 27.4129 75.702 27.4129C74.5851 27.4129 73.6719 28.3149 73.6719 29.4338C73.6789 30.5456 74.5851 31.4547 75.702 31.4547Z" fill="#718096"/>
<path d="M85.6367 44.313C86.0442 47.9912 88.2428 50.8582 90.9754 50.3757C93.7079 49.8932 95.0777 47.2989 94.7475 43.1382C94.4103 38.9076 92.31 36.7958 89.4791 37.0475C86.557 37.3133 85.2223 40.6278 85.6367 44.313ZM88.3412 36.3972C91.8604 35.7399 96.8689 36.5161 98.0069 41.9984C99.1448 47.4807 95.3516 50.4037 92.0642 51.1169C88.8469 51.8092 83.3889 51.3197 82.3984 45.4178C81.5134 40.1243 85.3698 36.9496 88.3412 36.3972Z" fill="#718096"/>
<path d="M46.6631 50.1465H48.7072C56.3007 50.1465 58.3378 49.4472 61.0141 45.9089C63.6905 42.3705 64.0066 37.3008 64.0066 35.5806C64.0066 33.8603 63.55 29.5598 60.8736 25.9166C58.1973 22.2734 53.7368 21.3293 49.8311 21.3293H46.649C45.8974 21.3293 45.8553 21.665 45.8553 22.1895V49.4752C45.8483 50.0765 46.059 50.1465 46.6631 50.1465ZM34.293 50.7828C34.293 50.5101 34.6512 50.4611 34.9884 50.4471C38.8519 50.3353 39.5754 50.2024 40.0179 49.7479C40.2568 49.4961 40.615 49.2933 40.615 47.5102V22.9726C40.615 20.7699 37.9246 21.1196 36.028 20.9238C35.3607 20.8608 35.3045 20.7699 35.3045 20.5741C35.3045 20.3853 35.4309 20.2874 35.7822 20.2734H51.3625C68.4882 20.2734 69.3662 32.7345 69.3662 36.0631C69.3662 43.2027 64.6247 51.0625 54.7061 51.0625H34.7917C34.5459 51.0625 34.293 51.0345 34.293 50.7828Z" fill="#718096"/>
</g>
<defs>
<clipPath id="clip0">
<rect width="78.8471" height="31.5388" fill="white" transform="translate(34.293 20.2773)"/>
</clipPath>
</defs>
</svg>
