<svg width="149" height="75" viewBox="0 0 149 75" fill="none" xmlns="http://www.w3.org/2000/svg">
<g clip-path="url(#clip0)">
<g clip-path="url(#clip1)">
<path d="M58.0832 53.9169H59.0397L60.6659 56.6L62.2761 53.9169H63.2326L63.4877 59.6007H62.4992L62.3079 55.6633L60.8891 57.9813H60.3949L58.96 55.7109L58.7847 59.6007H57.8281L58.0832 53.9169Z" fill="#718096"/>
<path d="M68.8473 57.2668L68.1299 55.06L67.3965 57.2668H68.8473ZM67.6197 53.9169H68.6719L70.7285 59.6007H69.5806L69.1023 58.1559H67.0777L66.5994 59.6007H65.5312L67.6197 53.9169Z" fill="#718096"/>
<path d="M74.9674 56.473C75.2224 56.473 75.4297 56.3936 75.5732 56.2348C75.7167 56.0761 75.7964 55.8856 75.7964 55.6474C75.7964 55.4093 75.7167 55.2029 75.5732 55.0441C75.4137 54.8853 75.2224 54.8218 74.9833 54.8218H73.8992V56.473H74.9674ZM72.8948 53.9169H74.9514C75.2862 53.9169 75.5891 53.9645 75.8283 54.0756C76.0674 54.1868 76.2587 54.3138 76.4022 54.4884C76.5457 54.6631 76.6573 54.8377 76.721 55.0441C76.7848 55.2505 76.8167 55.441 76.8167 55.6157C76.8167 55.9649 76.737 56.2984 76.5935 56.5683C76.45 56.8382 76.2109 57.0604 75.908 57.2351L77.1674 59.6166H76.0036L74.9036 57.378H73.8673V59.6166H72.8789V53.9169H72.8948Z" fill="#718096"/>
<path d="M81.5527 56.473C81.8077 56.473 82.015 56.3936 82.1585 56.2348C82.302 56.0761 82.3817 55.8856 82.3817 55.6474C82.3817 55.4093 82.302 55.2029 82.1585 55.0441C81.9991 54.8853 81.8077 54.8218 81.5686 54.8218H80.4845V56.473H81.5527ZM79.4961 53.9169H81.5527C81.8875 53.9169 82.1904 53.9645 82.4295 54.0756C82.6686 54.1868 82.8599 54.3138 83.0034 54.4884C83.1469 54.6631 83.2585 54.8377 83.3223 55.0441C83.386 55.2505 83.4179 55.441 83.4179 55.6157C83.4179 55.9649 83.3382 56.2984 83.1947 56.5683C83.0513 56.8382 82.8121 57.0604 82.5092 57.2351L83.7687 59.6166H82.6049L81.5048 57.378H80.4845V59.6166H79.4961V53.9169Z" fill="#718096"/>
<path d="M87.3523 53.9169H86.332V59.6007H87.3523V53.9169Z" fill="#718096"/>
<path d="M92.6659 58.7434C92.9369 58.7434 93.176 58.6958 93.3992 58.5847C93.6224 58.4735 93.7978 58.3306 93.9572 58.1401C94.1166 57.9496 94.2282 57.7432 94.3079 57.4892C94.3876 57.251 94.4355 56.997 94.4355 56.7271C94.4355 56.4572 94.3876 56.2032 94.3079 55.9491C94.2282 55.711 94.1166 55.4887 93.9572 55.3141C93.7978 55.1235 93.6224 54.9807 93.3992 54.8854C93.176 54.7743 92.9369 54.7266 92.6659 54.7266C92.3949 54.7266 92.1557 54.7743 91.9325 54.8854C91.7253 54.9965 91.534 55.1394 91.3905 55.3141C91.2311 55.4887 91.1195 55.711 91.0397 55.9491C90.96 56.1873 90.9122 56.4413 90.9122 56.7271C90.9122 56.997 90.96 57.251 91.0397 57.4892C91.1195 57.7273 91.2311 57.9496 91.3905 58.1401C91.5499 58.3306 91.7253 58.4735 91.9325 58.5847C92.1557 58.6799 92.3949 58.7434 92.6659 58.7434ZM92.6659 59.7436C92.2673 59.7436 91.9006 59.6643 91.5499 59.5055C91.2151 59.3467 90.9122 59.1403 90.6571 58.8704C90.4021 58.6005 90.1948 58.283 90.0513 57.9178C89.9078 57.5527 89.8281 57.1716 89.8281 56.743C89.8281 56.3302 89.9078 55.9333 90.0513 55.5681C90.1948 55.2029 90.4021 54.8854 90.6571 54.6155C90.9122 54.3456 91.1992 54.1392 91.5499 53.9804C91.9006 53.8217 92.2673 53.7423 92.6659 53.7423C93.0644 53.7423 93.4311 53.8217 93.7818 53.9804C94.1166 54.1392 94.4195 54.3456 94.6746 54.6155C94.9297 54.8854 95.1369 55.2029 95.2804 55.5681C95.4239 55.9333 95.5036 56.3143 95.5036 56.743C95.5036 57.1558 95.4239 57.5527 95.2804 57.9178C95.1369 58.283 94.9297 58.6005 94.6746 58.8704C94.4195 59.1403 94.1166 59.3626 93.7818 59.5055C93.4311 59.6643 93.0644 59.7436 92.6659 59.7436Z" fill="#718096"/>
<path d="M98.6732 54.8536H96.8398V53.9169H101.543V54.8536H99.7095V59.6007H98.6732V54.8536Z" fill="#718096"/>
<path d="M105.131 54.8536H103.281V53.9169H108V54.8536H106.151V59.6007H105.131V54.8536Z" fill="#718096"/>
<path d="M85.6009 48.233H94.7678L79.4312 11.8438L71.731 15.559L77.0877 28.2285L74.6007 34.1187L65.0033 11.2564L57.2235 14.7969L63.4729 29.4034L63.441 29.4669C59.5829 38.6912 54.864 41.2156 54.4016 41.3902C53.3016 41.8348 52.1219 42.0888 50.8784 42.0888C50.4958 42.0888 50.1291 42.0729 49.7624 42.0253L46 50.0589C47.2435 50.7733 48.6464 51.1861 50.1291 51.1861C52.0103 51.1861 53.7321 50.5352 55.1669 49.4555L55.1509 49.4873C55.1509 49.4873 58.7061 47.6932 62.5163 37.8656C62.5163 37.8497 63.9193 34.722 64.6686 32.7216L64.7483 32.4993L71.4441 48.2489H80.595L75.8761 37.167L78.379 31.2768L85.6009 48.233Z" fill="#718096"/>
</g>
</g>
<defs>
<clipPath id="clip0">
<rect width="149" height="75" fill="white"/>
</clipPath>
<clipPath id="clip1">
<rect width="62" height="48.4872" fill="white" transform="translate(46 11.2564)"/>
</clipPath>
</defs>
</svg>
