<svg width="149" height="75" viewBox="0 0 149 75" fill="none" xmlns="http://www.w3.org/2000/svg">
<g clip-path="url(#clip0)">
<g clip-path="url(#clip1)">
<path d="M85.2735 19.2741C87.5618 18.1385 88.6961 18.2876 88.721 19.4385C88.7512 20.9343 88.5325 22.9225 88.3752 24.3618C87.5262 32.1825 86.1073 38.5738 86.0007 46.6038C89.738 36.8255 92.8709 30.029 96.9087 21.6584C98.1907 18.991 99.0085 19.4897 100.061 19.0171C104.159 17.1727 104.312 18.3029 103.778 20.5588C101.789 28.9149 96.6998 55.225 95.921 59.276C95.697 60.4484 94.4364 59.9516 94.1102 59.4925C92.6504 57.4522 91.0031 57.4208 91.1862 56.0642C92.1019 49.3099 95.3965 32.3631 96.2562 28.3705C91.8778 37.4418 87.3368 48.7825 85.0023 55.2125C84.5089 56.578 83.6092 56.4774 83.0501 55.4784C82.2615 54.0751 80.7316 53.3581 80.4773 51.7006C79.679 46.4278 81.393 36.3781 81.6312 30.02C79.246 36.9656 75.2446 50.45 73.4897 56.5421C72.7679 59.0631 70.3569 58.6516 70.9979 56.1944C73.6622 45.9705 79.4043 27.8872 81.8855 21.3862C82.4713 19.8544 84.0022 19.9056 85.2735 19.2741Z" fill="#718096"/>
<path d="M70.7414 18.0195C69.9689 17.8291 67.726 19.0527 66.348 19.2944C65.9106 19.3716 65.4937 19.8388 65.3461 20.173C63.1387 25.2967 61.1607 30.1805 59.4476 34.6303C57.2562 35.0086 54.6932 35.5063 51.8244 36.1576C53.8789 30.8318 55.9538 25.5797 57.9772 20.5279C58.9738 18.0402 56.3503 17.8039 55.3324 20.3222C54.0105 23.596 51.5337 29.7295 48.7929 36.8782C46.7793 37.3768 44.643 37.9473 42.4108 38.5995C40.7883 39.073 40.7225 39.5096 41.424 40.4925C41.8107 41.0396 42.609 40.9848 42.9753 41.3747C43.9212 42.3854 44.4955 43.5947 46.189 43.778C44.6786 47.8613 43.1682 52.0713 41.8 56.1258C40.9403 58.671 43.3869 59.1912 44.3275 56.4986C45.8432 52.1575 47.4398 47.7642 49.0818 43.3836C50.45 43.0619 53.7598 42.3414 56.8161 41.6721C54.3901 48.3904 52.7934 53.4934 52.1889 55.9776C52.0769 56.4555 52.2653 56.7205 52.3667 56.9155C53.1854 58.1194 53.9633 58.1688 55.0159 59.6575C55.3004 60.0636 56.257 60.2828 56.5824 59.2828C58.8297 52.4216 61.1438 45.9836 63.2996 40.2131C64.1948 40.0154 65.8066 39.6219 66.7934 38.1341C68.5474 35.4937 69.0515 36.0292 69.4737 35.2269C70.0027 34.2188 69.6516 33.2728 67.7802 33.5064C67.7802 33.5064 67.0734 33.5576 65.7666 33.7077C67.8415 28.3091 69.6569 23.7299 70.9637 20.2404C71.4126 19.0581 71.4686 18.1947 70.7414 18.0195Z" fill="#718096"/>
<path d="M67.6798 53.0341C68.1625 54.2676 69.6729 53.8948 69.0986 52.4052C68.5137 50.8878 67.0592 46.3211 66.6779 44.8495C66.1596 42.8667 68.407 43.4094 67.2682 44.7049C66.292 45.8198 65.6404 46.2663 63.8357 48.3857C62.0915 50.4314 62.5645 53.0862 64.4305 53.6729C66.5356 54.335 68.3919 51.9901 69.5413 50.2706C70.6553 48.6049 69.5769 47.6283 68.4532 48.613C67.7314 49.2464 66.8975 50.2184 66.0529 50.7422C65.3666 51.1645 64.827 50.7108 65.7426 49.4377C66.8059 47.9634 67.9954 46.7281 68.8799 45.3347C70.6855 42.4957 67.1153 40.8588 65.58 42.7032C64.7559 43.6861 64.9648 44.6519 65.1888 45.4802C65.5497 46.8063 66.8921 51.0414 67.6798 53.0341Z" fill="#718096"/>
</g>
</g>
<defs>
<clipPath id="clip0">
<rect width="149" height="75" fill="white"/>
</clipPath>
<clipPath id="clip1">
<rect width="63" height="42" fill="white" transform="translate(41 18)"/>
</clipPath>
</defs>
</svg>
