<svg width="149" height="75" viewBox="0 0 149 75" fill="none" xmlns="http://www.w3.org/2000/svg">
<g clip-path="url(#clip0)">
<path d="M49.0071 42.5139L49.5331 42.6456L47.6913 48.2354H31.4214V47.6348H32.2116C33.1341 47.6348 33.5938 47.3717 33.9904 46.7765C34.1888 46.4475 34.3208 45.6609 34.3208 44.4881V30.5194C34.3208 29.2091 34.1885 28.3566 33.861 28.0277C33.4616 27.567 32.8695 27.304 32.0131 27.304H31.2891V26.7804H40.7086V27.304C39.588 27.304 38.8639 27.3698 38.4099 27.6329C38.0159 27.8099 37.6913 28.1115 37.4874 28.4912C37.2893 28.8201 37.2232 29.6068 37.2232 30.8512V44.6166C37.2232 45.4749 37.2893 46.1241 37.4874 46.4533C37.6362 46.6756 37.8401 46.8561 38.0795 46.9769C38.3438 47.1086 39.3957 47.1086 40.7805 47.1086H42.0967C43.7432 47.1086 44.8638 46.9769 45.5217 46.7138C46.2326 46.4295 46.8653 45.9805 47.3664 45.4036C48.0924 44.5524 48.6493 43.572 49.0071 42.5139Z" fill="#718096"/>
<path d="M68.0425 26.78V27.3695C67.5017 27.461 67.0013 27.7122 66.6057 28.0903C65.9655 28.7677 65.4761 29.572 65.1689 30.4503L57.7008 48.8072H57.0426L49.1377 30.2559C48.8886 29.6479 48.6005 29.0565 48.2755 28.4854C48.0097 28.1548 47.6741 27.8863 47.2927 27.6987C46.8945 27.4665 46.438 27.3524 45.9766 27.3698V26.78H54.1432V27.3695C53.1574 27.4353 52.8386 27.6383 52.5511 27.8959C52.2733 28.1227 52.1059 28.4568 52.0914 28.8143C52.0914 29.3379 52.3556 30.1904 52.8154 31.306L58.229 43.8299L63.3013 31.4345C63.7611 30.1872 64.0254 29.3347 64.0254 28.8769C64.0254 28.5326 63.8531 28.2107 63.5656 28.0186C63.068 27.7016 62.5053 27.5002 61.919 27.4292C61.8264 27.4321 61.7348 27.4096 61.6548 27.3634V26.78H68.0454H68.0425Z" fill="#718096"/>
<path d="M81.4196 48.2347L73.3163 30.3985V44.5501C73.3163 45.8603 73.4486 46.6499 73.7761 46.9759C74.1726 47.4336 74.6382 47.6309 75.5001 47.6309H76.2903V48.2344H68.707V47.6338H69.9599C70.8824 47.6338 71.5403 47.3707 71.8707 46.8471C72.135 46.5182 72.2012 45.7315 72.2012 44.5587V30.4531C72.2344 29.7596 72.1221 29.0668 71.8707 28.4192C71.7385 28.0903 71.4742 27.8956 71.0805 27.6325C70.5223 27.3839 69.9125 27.2712 69.3017 27.3036V26.78H74.8993L82.6061 43.5662L90.2442 26.78H96.0402V27.3695H95.3161C94.3936 27.3695 93.8793 27.6325 93.5376 28.1561C93.2733 28.485 93.141 29.2717 93.141 30.4445V44.5504C93.141 45.8606 93.2733 46.6502 93.6008 46.9762C93.9974 47.434 94.5233 47.6312 95.3797 47.6312H95.9714V48.2347H87.2818V47.6341H87.94C88.8625 47.6341 89.5204 47.371 89.8508 46.8474C90.1151 46.5185 90.1812 45.7318 90.1812 44.5591V30.1901L81.9459 48.2351L81.4196 48.2347Z" fill="#718096"/>
<path d="M103.023 36.6179H112.969V30.519C112.969 29.4034 112.903 28.6826 112.77 28.3562C112.622 28.0771 112.393 27.8487 112.112 27.7013C111.722 27.4433 111.264 27.3062 110.796 27.3065H110.072V26.78H118.833V27.3695H118.109C117.659 27.3589 117.218 27.4976 116.856 27.7642C116.525 27.9088 116.281 28.2001 116.198 28.5509C116.066 28.8798 116 29.6006 116 30.6507V44.5533C116 45.6689 116.066 46.3238 116.198 46.716C116.346 46.9974 116.575 47.2277 116.856 47.3768C117.25 47.626 117.706 47.7629 118.172 47.7716H118.897V48.361H110.135V47.7661H110.859C111.721 47.7661 112.242 47.503 112.638 46.9794C112.902 46.6505 113.035 45.8638 113.035 44.5536V37.7965H103.023V44.4845C103.023 45.6001 103.09 46.2551 103.222 46.6473C103.37 46.9264 103.599 47.1548 103.88 47.3026C104.27 47.5602 104.728 47.6977 105.196 47.6974H106.001V48.2868H97.3801V47.7002H98.1041C98.7766 47.7513 99.428 47.4542 99.8281 46.9136C100.092 46.5847 100.225 45.798 100.225 44.4878V30.519C100.225 29.4034 100.159 28.6826 100.026 28.3562C99.8778 28.0771 99.6487 27.8487 99.3683 27.7013C98.9782 27.4433 98.5204 27.3062 98.0522 27.3065H97.3281V26.78H106V27.3695H105.196C104.746 27.3589 104.305 27.4976 103.943 27.7642C103.626 27.9271 103.388 28.2107 103.285 28.5509C103.153 28.8798 103.086 29.6006 103.086 30.6507L103.02 36.6179H103.023Z" fill="#718096"/>
</g>
<defs>
<clipPath id="clip0">
<rect width="87.6079" height="22.0271" fill="white" transform="translate(31.2891 26.7847)"/>
</clipPath>
</defs>
</svg>
