<svg width="150" height="75" viewBox="0 0 150 75" fill="none" xmlns="http://www.w3.org/2000/svg">
<path fill-rule="evenodd" clip-rule="evenodd" d="M34.2055 32.196L30.2773 38.1267C30.2773 38.1267 30.5756 35.008 30.5756 34.2752C30.6522 33.6787 30.5756 32.196 29.1696 32.196C27.8318 32.196 23.0173 32.196 23.0173 32.196L19.0039 43.1627H23.8268L26.7155 35.2295L26.119 43.1627H30.4222L35.6882 35.3744L32.7996 43.1627H37.6225L41.7041 32.1875L34.2055 32.196Z" fill="#718096"/>
<path fill-rule="evenodd" clip-rule="evenodd" d="M60.4588 42.9391C60.1606 43.0158 58.3797 43.3822 56.3772 43.3822C52.9688 43.5271 49.9268 42.1211 49.9268 39.6756C49.8501 35.2957 54.2299 32.9268 57.4935 32.3304C58.8995 32.0321 61.72 31.6657 64.4638 32.3304L62.8277 36.1819C62.3846 35.1423 61.2002 35.1423 60.6804 35.1423C59.5641 35.0656 58.5331 35.4406 57.8599 35.7388C56.2239 36.4801 54.8179 38.849 57.1186 39.8204C58.3797 40.3402 60.0072 39.8971 61.72 39.6756L60.4588 42.9391Z" fill="#718096"/>
<path fill-rule="evenodd" clip-rule="evenodd" d="M109.84 43.1705H104.582L108.578 32.1953H113.921L109.84 43.1705Z" fill="#718096"/>
<path fill-rule="evenodd" clip-rule="evenodd" d="M45.9965 43.1705H40.7305L44.7354 32.1953H50.0696L45.9965 43.1705Z" fill="#718096"/>
<path fill-rule="evenodd" clip-rule="evenodd" d="M74.6994 32.1953L73.2849 36.1235H70.5412L72.0238 32.1953H66.9793L62.9062 43.1705H67.9422L69.3567 39.4553H72.0238L70.6945 43.1705H75.7305L79.8121 32.1953H74.6994Z" fill="#718096"/>
<path fill-rule="evenodd" clip-rule="evenodd" d="M99.0936 39.532L101.761 32.1953H96.5713L92.5664 43.1705H102.945L104.283 39.532H99.0936Z" fill="#718096"/>
<path fill-rule="evenodd" clip-rule="evenodd" d="M127.041 32.1953L124.22 39.762C124.297 39.0207 124.442 35.9787 124.519 34.2745C124.595 33.5331 124.442 33.0133 124.076 32.6469C123.633 32.2038 123.113 32.2038 123.113 32.2038H116.961L112.879 43.179H117.404L120.224 35.3907L119.926 43.179H127.416L131.498 32.2038L127.041 32.1953Z" fill="#718096"/>
<path fill-rule="evenodd" clip-rule="evenodd" d="M84.8561 40.1966L85.2992 39.0122H91.085L92.0479 36.2684H86.262L86.7051 35.084H92.7892L93.8288 32.1953H82.7769L78.6953 43.1705H89.9687L91.0083 40.1966H84.8561Z" fill="#718096"/>
</svg>
