<svg width="149" height="75" viewBox="0 0 149 75" fill="none" xmlns="http://www.w3.org/2000/svg">
<g clip-path="url(#clip0)">
<path fill-rule="evenodd" clip-rule="evenodd" d="M79.7157 29.2829C79.8609 29.0651 80.2784 29.2103 80.5869 29.2284C80.9862 29.2284 80.8954 29.8273 81.458 29.7184C82.0206 29.5914 82.0206 30.2446 82.8192 30.2265C83.6177 30.2083 82.6559 30.4987 82.6559 30.4987C82.6559 30.4987 82.1658 30.2628 81.8392 30.4261C81.6758 30.5168 81.8936 30.3717 81.6214 30.1539C81.1858 29.791 81.2402 30.2265 80.4961 29.5914C79.988 29.1377 79.4798 29.6276 79.7157 29.2829Z" fill="#718096"/>
<path d="M73.6981 30.1084C73.2262 29.3463 73.571 28.3845 74.1155 27.4591C74.5148 26.7695 75.5674 26.4792 76.4748 26.8239C77.5093 26.0074 77.7453 26.8784 78.6709 26.4973C79.8687 25.9711 79.1972 27.8764 80.3587 28.3482C80.8306 27.078 79.2698 26.1162 80.2498 25.5174C80.9576 25.0819 81.4839 24.8279 81.7743 24.2472C82.1917 23.4306 82.3369 22.8318 82.6636 22.7229C83.3896 22.4689 83.2262 21.7793 83.2262 21.7793C83.2262 21.7793 84.0066 21.9971 84.6055 21.4346C84.1518 21.1805 83.4622 20.9809 83.6436 20.4728C83.8433 19.8921 85.4222 21.0716 85.8759 20.1099C84.9504 19.7107 83.9885 18.8215 83.4259 18.6219C83.0447 19.0574 82.7906 18.876 82.2825 18.4768C81.4295 17.8054 81.3569 18.4405 80.8306 17.9868C80.4132 18.8397 81.0484 18.7671 81.248 18.9848C81.7925 19.5837 80.6854 18.4586 80.7943 19.9647C80.8306 20.3639 80.2317 20.4365 79.7961 19.5836C79.5783 19.13 77.7634 19.2207 77.4912 18.8034C77.7453 18.3134 79.8687 16.5351 83.1355 16.9525C78.3986 15.0834 71.9739 17.1158 71.9195 17.8235C71.2843 18.2227 71.5021 18.6764 71.1754 18.7852C70.6128 18.9667 70.0139 20.6543 70.0139 20.6543C70.0139 20.6543 70.3587 20.8902 69.2879 22.0878C68.3986 23.0677 68.1445 24.5738 68.1445 24.5738C68.1445 24.5738 68.7253 25.6445 68.6164 26.8784C68.5438 27.822 68.4894 27.1143 68.9068 27.8039C69.1427 28.2031 69.3968 29.6003 69.5601 29.0559C69.8687 28.0216 69.0157 27.0598 69.1609 26.0255C69.1972 26.1525 69.4876 25.6263 69.4694 26.0981C69.4331 27.3683 71.0302 29.8181 71.0302 29.8181C71.0302 29.8181 70.4313 30.4169 71.0665 30.4169L70.9032 30.7979C70.9032 30.7979 71.3569 30.7798 71.6654 31.0157C71.9739 31.2516 72.228 31.5601 72.5003 31.5601H77.0919C77.0919 31.5601 77.4186 30.1628 77.6908 29.9269C77.9631 29.691 77.1645 29.9269 76.9286 29.691C76.6926 29.4551 76.5474 29.8907 76.4204 30.1266C76.2934 30.3625 76.1482 30.7798 75.8033 30.9068C75.4404 31.0338 74.5874 31.0883 74.4059 31.0883C74.2244 31.0883 73.6981 30.1084 73.6981 30.1084Z" fill="#718096"/>
<path d="M95.206 45.0102C95.0245 44.7743 95.2423 44.4114 95.2423 44.4114H82.3021L83.7359 45.6635C84.0444 45.7905 84.4437 46.099 84.6433 46.5889C85.0789 47.7322 84.4256 46.8067 84.4256 48.5306C84.4256 50.1274 83.9718 49.8734 83.9718 49.8734C83.9718 49.8734 83.8811 51.7606 82.901 52.9038C82.284 53.5208 82.7559 54.047 82.7559 54.047C82.7559 54.047 82.5381 54.174 82.2477 55.535C82.1388 55.9705 82.7196 56.66 83.2096 56.4967C83.5726 56.3697 82.3203 56.2427 83.6814 55.662C84.2078 55.4442 83.7722 55.0269 83.7722 55.0269C83.7722 55.0269 84.6615 54.9543 85.1515 53.6296C86.0408 53.7566 85.7141 53.2123 87.529 52.8312C88.0009 52.7223 88.1098 52.5772 88.0553 52.1417C88.0009 51.688 88.6542 52.2142 90.451 50.3815C91.8666 48.9298 91.3584 48.6032 92.3384 48.0769C93.3729 47.5325 93.4637 48.1314 93.8085 47.6777C94.607 46.6434 94.3167 46.716 94.6433 46.0627L94.8793 45.6998C94.8793 45.6816 95.3693 45.2461 95.206 45.0102Z" fill="#718096"/>
<path d="M86.1573 31.2029L85.8669 31.3844L85.8125 31.0941L86.1573 31.2029Z" fill="#718096"/>
<path d="M85.1221 30.9744C84.6502 31.0833 84.1784 30.9744 83.7428 31.3192L83.4524 31.0833H83.2891C83.6883 30.7566 83.0531 30.4119 83.7428 30.3937C84.2691 30.4119 84.6502 30.7929 85.1221 30.9744Z" fill="#718096"/>
<path fill-rule="evenodd" clip-rule="evenodd" d="M57.3242 31.3859C60.3188 22.1496 67.3968 15 79.2117 15C90.2099 15 98.268 22.2403 101.208 31.5855C98.1591 22.8754 89.4658 16.5969 79.2299 16.5969C69.0665 16.5969 60.4458 22.7847 57.3242 31.3859ZM101.154 45.5218C98.1773 54.7944 89.8106 61.9984 79.2117 61.9984C67.9594 61.9984 60.4095 54.8851 57.3605 45.7214C60.5184 54.25 69.121 60.3834 79.2299 60.3834C89.4114 60.3834 98.0502 54.1593 101.154 45.5218Z" fill="#718096"/>
<path d="M39.6552 33.6487H36.0436L36.588 34.2838V39.02C36.588 40.0906 35.8802 40.5261 34.8276 40.5261C33.775 40.5261 33.0671 40.0724 33.0671 39.02V34.2838L33.6116 33.6487H30L30.5445 34.2838V39.0925C30.5445 41.4515 31.8693 42.3588 34.8276 42.3588C37.7858 42.3588 39.1107 41.4515 39.1107 39.0925V34.2838L39.6552 33.6487Z" fill="#718096"/>
<path d="M52.171 33.6489H49.122L49.6665 34.284V38.6028L45.3108 33.6489H42.5703L43.1148 34.284V41.5606L42.5703 42.1957H45.6193L45.0748 41.5606V37.1693L49.7028 42.1957H51.6266V34.284L52.171 33.6489Z" fill="#718096"/>
<path d="M59.1805 42.2065L58.6361 41.5714V34.2948L59.1805 33.6597H55.5508L56.0952 34.2948V41.5714L55.5508 42.2065H59.1805Z" fill="#718096"/>
<path d="M71.1519 33.649H68.1029L68.6474 34.2841L66.4877 39.002L64.4006 34.2841L64.945 33.649H61.3516L65.3443 42.2139H67.1229L71.1519 33.649Z" fill="#718096"/>
<path d="M81.355 42.2065V39.8838L80.7198 40.4282H76.3459V38.795H79.1227L79.7579 39.3394V36.5449L79.1227 37.0893H76.3459V35.4561H80.7198L81.355 36.0005V33.6778H73.2969L73.8413 34.3129V41.5895L73.2969 42.2246H81.355V42.2065Z" fill="#718096"/>
<path fill-rule="evenodd" clip-rule="evenodd" d="M90.6658 36.4197C90.6658 37.0367 90.0669 37.5448 89.2502 37.5448H87.6168V35.4398H89.5587C90.1213 35.4398 90.6658 35.712 90.6658 36.4197ZM93.6059 42.2083L91.2829 38.8332C92.4262 38.3795 93.2248 37.4904 93.2248 36.2383C93.2248 34.8047 92.3536 33.6434 89.9217 33.6434H84.5859L85.1304 34.2785V41.5551L84.5859 42.1902H88.1613L87.6168 41.5551V39.1235H88.6876L90.321 41.5551L89.7765 42.1902H93.6059" fill="#718096"/>
<path d="M104.459 39.7041C104.459 38.3431 103.37 37.581 101.791 37.0729C100.757 36.7463 99.3046 36.5285 99.3046 35.839C99.3046 35.5124 99.7039 35.2764 100.394 35.2764C101.319 35.2764 102.825 35.6575 104.005 36.2201V33.353L103.315 34.0062C102.59 33.7159 101.355 33.4074 100.484 33.4074C97.5805 33.4074 96.6367 34.6958 96.6367 35.8571C96.6367 37.454 97.6894 38.1435 99.3409 38.7242C100.575 39.1416 101.718 39.1779 101.718 39.8856C101.718 40.4844 101.011 40.5751 100.648 40.5751C99.7402 40.5751 98.1249 40.2485 96.6912 39.323V42.4986L97.3808 41.7546C98.0523 42.0087 99.5405 42.4442 100.775 42.4442C103.334 42.4442 104.459 41.3191 104.459 39.7041Z" fill="#718096"/>
<path fill-rule="evenodd" clip-rule="evenodd" d="M113.139 39.1272H110.308L111.724 36.0605L113.139 39.1272ZM117.259 42.2121L113.049 33.6471H110.163L110.471 34.2822L106.66 42.1939H109.8L109.255 41.5588L109.673 40.6697H113.756L114.174 41.5588L113.629 42.1939H117.259V42.2121Z" fill="#718096"/>
<path d="M127.399 42.2065V39.8838L126.764 40.4282H122.644V34.2948L123.189 33.6597H119.613L120.158 34.2948V41.5714L119.613 42.2065H127.399Z" fill="#718096"/>
<path d="M125.594 35.4997C125.594 34.5561 126.356 33.794 127.3 33.794C128.243 33.794 129.006 34.5561 129.006 35.4997C129.006 36.4433 128.243 37.2055 127.3 37.2055C126.356 37.2055 125.594 36.4433 125.594 35.4997ZM125.757 35.4997C125.757 36.3526 126.447 37.0422 127.3 37.0422C128.153 37.0422 128.842 36.3526 128.842 35.4997C128.842 34.6469 128.153 33.9573 127.3 33.9573C126.447 33.9573 125.757 34.6469 125.757 35.4997Z" fill="#718096"/>
<path fill-rule="evenodd" clip-rule="evenodd" d="M127.947 34.8318C127.783 34.6867 127.565 34.6141 127.348 34.6141C126.84 34.6141 126.477 34.9952 126.477 35.5033C126.477 35.9932 126.84 36.3924 127.348 36.3924C127.565 36.3924 127.783 36.3017 127.965 36.1565V35.9387C127.801 36.1202 127.584 36.2472 127.348 36.2472C126.948 36.2472 126.658 35.9025 126.658 35.5214C126.658 35.1403 126.967 34.7956 127.366 34.7956C127.602 34.7956 127.801 34.9044 127.965 35.0677V34.8318" fill="#718096"/>
</g>
<defs>
<clipPath id="clip0">
<rect width="149" height="75" fill="white"/>
</clipPath>
</defs>
</svg>
