<svg width="149" height="75" viewBox="0 0 149 75" fill="none" xmlns="http://www.w3.org/2000/svg">
<g clip-path="url(#clip0)">
<g clip-path="url(#clip1)">
<path d="M35.2076 38.6225L35.445 38.647C36.347 38.696 36.6556 38.8676 36.7506 38.9656C36.8218 39.0391 37.0117 39.3087 37.0117 40.2889V43.6463C37.0117 43.8179 36.988 43.9159 36.9168 43.9894C36.8693 44.0384 36.7031 44.1609 36.1096 44.357C35.8248 44.455 35.5162 44.5285 35.2076 44.5776C34.899 44.6266 34.6141 44.6511 34.3767 44.6511C32.9999 44.6511 31.813 44.1364 30.8871 43.0827C29.9376 42.0534 29.4628 40.5585 29.4628 38.696C29.4628 36.4169 29.9376 34.775 30.8871 33.7947C31.8367 32.8145 32.9287 32.3244 34.1631 32.3244C35.3975 32.3244 36.3708 32.741 37.1304 33.5497C37.5577 34.0398 37.985 34.775 38.3886 35.7553L38.4598 35.9023H39.3381L39.1719 30.952H38.3173L38.2461 31.099C38.1749 31.2951 38.08 31.4176 37.985 31.5157C37.9375 31.5647 37.8188 31.6137 37.534 31.6137C37.4865 31.6137 37.2966 31.5892 36.2758 31.2951C35.4924 31.0745 34.6853 30.952 33.8782 30.952C31.623 30.952 29.7952 31.7607 28.4183 33.3536C27.1839 34.7995 26.543 36.564 26.543 38.5735C26.543 40.8771 27.3263 42.7396 28.8931 44.1119C30.2937 45.3373 32.0503 45.9744 34.1156 45.9744C35.2313 45.9744 36.3945 45.7539 37.5814 45.3373C39.1719 44.7736 39.5043 44.4305 39.5043 44.1119V39.9459C39.5043 39.3577 39.623 38.9656 39.8366 38.7941C39.9078 38.745 40.1215 38.6225 40.7149 38.598L40.9523 38.5735V37.6913H35.2076V38.6225Z" fill="#718096"/>
<path d="M60.2989 32.1296L60.5126 32.1541C61.1773 32.2276 61.652 32.3747 61.8657 32.6197C61.9844 32.7668 62.198 33.1834 62.198 34.6048V40.0942C62.198 41.393 62.0556 42.3488 61.747 42.9614C61.2248 44.0397 60.1803 44.5544 58.5898 44.5544C57.1417 44.5544 56.2159 44.0397 55.7174 43.0105C55.4325 42.4223 55.3138 41.5891 55.3138 40.5353V33.7715C55.3138 32.8648 55.48 32.5707 55.575 32.4727C55.6699 32.3747 56.0022 32.2031 56.9518 32.1296L57.1892 32.1051V31.2229H50.8984V32.1051L51.1358 32.1296C52.0616 32.2031 52.394 32.3747 52.4889 32.4727C52.5839 32.5707 52.7501 32.8648 52.7501 33.7715V40.3638C52.7501 41.7116 52.9874 42.8144 53.4385 43.6476C54.2693 45.216 55.8598 46.0002 58.1625 46.0002C60.4889 46.0002 62.0793 45.1915 62.9339 43.5986C63.385 42.7409 63.6224 41.5646 63.6224 40.0697V34.5803C63.6224 33.2079 63.8123 32.7668 63.931 32.6197C64.0734 32.4482 64.4295 32.2276 65.3315 32.1296L65.5452 32.1051V31.2229H60.3227L60.2989 32.1296Z" fill="#718096"/>
<path d="M86.9345 41.7851C86.436 42.9124 85.89 43.6476 85.2728 43.9417C84.6556 44.2358 83.6586 44.3828 82.3055 44.3828C80.7387 44.3828 80.2165 44.3338 80.074 44.2848C80.0266 44.2603 79.8604 44.2358 79.8604 43.7947V38.8199H82.7803C83.8248 38.8199 84.1571 39.0159 84.2521 39.1384C84.3945 39.2855 84.6081 39.6776 84.7743 40.6333L84.8218 40.8294H85.7476V35.438H84.8218L84.7743 35.634C84.6081 36.5898 84.3945 36.9819 84.2521 37.1289C84.1571 37.2515 83.801 37.4475 82.7565 37.4475H79.8367V32.9873C79.8367 32.6688 79.8841 32.5952 79.8841 32.5952C79.8841 32.5952 79.9554 32.5462 80.2402 32.5462H83.0176C84.442 32.5462 84.988 32.7423 85.1779 32.9138C85.3915 33.0854 85.6764 33.502 85.8663 34.5557L85.9138 34.7518H86.887L86.8158 31.2229H75.4688V32.1051L75.7061 32.1296C76.6082 32.2031 76.9168 32.3747 77.0118 32.4727C77.1067 32.5707 77.2729 32.8648 77.2729 33.7715V43.1575C77.2729 44.1132 77.1067 44.3828 77.0355 44.4563C76.9405 44.5544 76.6319 44.7014 75.7061 44.8239L75.4925 44.8484V45.7307H86.982L88.0502 41.6626H87.0057L86.9345 41.7851Z" fill="#718096"/>
<path d="M104.575 37.5208L102.771 36.369C102.13 35.9524 101.655 35.5603 101.347 35.1927C101.062 34.8496 100.92 34.4575 100.92 33.9674C100.92 33.4282 101.086 33.0361 101.442 32.742C101.822 32.448 102.249 32.2764 102.747 32.2764C103.412 32.2764 104.101 32.5215 104.789 33.0361C105.477 33.5262 105.976 34.433 106.284 35.7318L106.332 35.9279H107.282L106.783 30.9286H105.952L105.905 31.1246C105.857 31.3207 105.81 31.4677 105.739 31.5412C105.691 31.5902 105.572 31.6393 105.406 31.6393C105.382 31.6393 105.193 31.5902 104.362 31.2962C103.673 31.0511 103.08 30.9286 102.605 30.9286C101.418 30.9286 100.445 31.3207 99.7089 32.0559C98.973 32.8156 98.6169 33.7713 98.6169 34.8986C98.6169 35.7563 98.9255 36.565 99.5427 37.2757C99.8751 37.6433 100.302 38.0109 100.848 38.354L102.581 39.4813C103.555 40.1185 104.219 40.5841 104.504 40.9027C104.931 41.3683 105.145 41.9074 105.145 42.5201C105.145 43.2063 104.931 43.7209 104.528 44.113C104.101 44.5051 103.602 44.7012 103.009 44.7012C101.869 44.7012 100.943 44.26 100.184 43.3043C99.7326 42.7651 99.3528 42.03 99.0205 41.1232L98.9492 40.9517H98.0234L98.7119 45.951H99.5902L99.6139 45.7304C99.6377 45.5834 99.6851 45.4609 99.7564 45.3383C99.8038 45.2648 99.8751 45.2403 100.017 45.2403C100.041 45.2403 100.231 45.2893 101.133 45.6079C101.845 45.853 102.534 46 103.198 46C104.504 46 105.62 45.6079 106.451 44.8237C107.305 44.0395 107.756 43.0347 107.756 41.8584C107.756 40.9762 107.519 40.2165 107.02 39.5548C106.546 38.9422 105.715 38.256 104.575 37.5208Z" fill="#718096"/>
<path d="M126.72 39.5548C126.245 38.9422 125.414 38.256 124.275 37.5208L122.47 36.369C121.829 35.9524 121.355 35.5603 121.046 35.1927C120.761 34.8496 120.619 34.4575 120.619 33.9674C120.619 33.4282 120.785 33.0361 121.141 32.742C121.521 32.448 121.948 32.2764 122.447 32.2764C123.111 32.2764 123.8 32.5215 124.488 33.0361C125.177 33.5262 125.675 34.433 125.984 35.7318L126.031 35.9279H126.981L126.482 30.9286H125.651L125.604 31.1246C125.556 31.3207 125.509 31.4677 125.438 31.5412C125.39 31.5902 125.272 31.6393 125.105 31.6393C125.082 31.6393 124.892 31.5902 124.061 31.2962C123.372 31.0511 122.779 30.9286 122.304 30.9286C121.117 30.9286 120.144 31.3207 119.408 32.0559C118.672 32.8156 118.316 33.7713 118.316 34.8986C118.316 35.7563 118.625 36.565 119.242 37.2757C119.574 37.6433 120.002 38.0109 120.548 38.354L122.28 39.4813C123.254 40.1185 123.918 40.5841 124.203 40.9027C124.631 41.3683 124.844 41.9074 124.844 42.5201C124.844 43.2063 124.631 43.7209 124.227 44.113C123.8 44.5051 123.301 44.7012 122.708 44.7012C121.568 44.7012 120.643 44.26 119.883 43.3043C119.432 42.7651 119.052 42.03 118.72 41.1232L118.648 40.9517H117.723L118.411 45.951H119.289L119.313 45.7304C119.337 45.5834 119.384 45.4609 119.456 45.3383C119.479 45.2648 119.574 45.2403 119.717 45.2403C119.74 45.2403 119.93 45.2893 120.832 45.6079C121.545 45.853 122.233 46 122.898 46C124.203 46 125.319 45.6079 126.15 44.8237C127.004 44.0395 127.455 43.0347 127.455 41.8584C127.455 40.9762 127.218 40.2165 126.72 39.5548Z" fill="#718096"/>
</g>
</g>
<defs>
<clipPath id="clip0">
<rect width="149" height="75" fill="white"/>
</clipPath>
<clipPath id="clip1">
<rect width="100.913" height="15.0714" fill="white" transform="translate(26.543 30.9286)"/>
</clipPath>
</defs>
</svg>
