<svg width="150" height="75" viewBox="0 0 150 75" fill="none" xmlns="http://www.w3.org/2000/svg">
<path d="M57.1648 27.6616H51.1207V35.4822H44.8289V27.6616H38.7847V47.3384H44.8289V39.5983H51.1207V47.3384H57.1648V27.6616ZM78.1899 43.3856V27.6616H72.1458V47.3384H83.0748L83.9842 43.3834L78.1899 43.3856ZM67.6774 27.6616H61.6332V47.3384H67.6774V27.6616ZM92.1804 27.6616H86.1385V47.3384H92.1804V27.6616ZM121.978 32.6837C121.978 31.6122 123.056 31.1178 124.792 31.1178C126.696 31.1178 128.767 31.5316 130.174 32.111L129.679 27.8271C128.105 27.4961 126.698 27.25 124.134 27.25C119.25 27.25 115.938 29.1649 115.938 33.1781C115.938 40.0927 125.379 38.6946 125.379 41.9047C125.379 43.1373 124.465 43.795 122.23 43.795C120.247 43.795 117.179 43.1373 115.36 42.2313L116.022 46.7635C117.843 47.4234 120.323 47.75 122.313 47.75C127.363 47.75 131.5 46.1036 131.5 41.162C131.5 34.5785 121.978 35.8133 121.978 32.6837ZM104.931 42.6474C110.556 42.6474 114.117 39.7639 114.117 34.7418C114.117 29.2275 110.311 27.25 104.1 27.25C101.7 27.25 98.8008 27.4155 96.7343 27.6616V47.3384H102.778V42.6474H104.931ZM108.156 34.8245C108.156 37.3747 106.916 39.1062 103.767 39.1062H102.776V30.9746C103.127 30.9545 103.456 30.9545 103.767 30.9545C106.747 30.9545 108.156 32.3526 108.156 34.8245ZM27.1962 42.6474C32.8239 42.6474 36.3828 39.7639 36.3828 34.7418C36.3828 29.2275 32.5763 27.25 26.37 27.25C23.9659 27.25 21.071 27.4155 19 27.6616V47.3384H25.0442V42.6474H27.1962ZM30.4265 34.8245C30.4265 37.3747 29.1816 39.1062 26.0369 39.1062H25.0442V30.9746C25.3953 30.9545 25.7285 30.9545 26.0369 30.9545C29.0173 30.9545 30.4265 32.3526 30.4265 34.8245Z" fill="#718096"/>
</svg>
