<svg width="149" height="75" viewBox="0 0 149 75" fill="none" xmlns="http://www.w3.org/2000/svg">
<g clip-path="url(#clip0)">
<path d="M55.6657 38.1185H50.3841V32.8948H47.4219V44.6651H50.3841V38.9354H55.6657V44.6651H58.628V32.8948H55.6657V38.1185Z" fill="#718096"/>
<path d="M62.0391 44.6649H65.0015V32.8941H62.0391V44.6649Z" fill="#718096"/>
<path d="M67.766 44.3093C67.2492 44.3093 66.6104 44.0981 66.1587 43.7196L65.707 44.4766C66.2848 44.9189 67.2044 45.2337 68.2827 45.2337C71.1758 45.2337 73.4382 43.4327 74.8542 38.6472C76.079 34.4914 76.9091 33.4634 78.5815 33.4634C79.0738 33.4634 79.6109 33.5909 79.9975 33.8419L80.3189 33.0251C79.794 32.7422 78.9436 32.5828 78.1054 32.5828C75.2733 32.5828 73.0028 34.1606 71.6478 38.5237C70.1748 43.2892 69.4587 44.3093 67.766 44.3093Z" fill="#718096"/>
<path d="M121.988 38.8123C121.988 41.9601 120.702 44.1636 118.126 44.1636C115.55 44.1636 114.199 41.9601 114.199 38.8123C114.199 35.6645 115.55 33.3973 118.126 33.3973C120.698 33.3973 121.988 35.6645 121.988 38.8123ZM125.011 38.8123C125.011 34.2181 121.084 32.708 118.122 32.708C115.16 32.708 111.168 34.2181 111.168 38.8123C111.168 43.4065 115.16 44.8569 118.122 44.8569C121.084 44.8529 125.011 43.4065 125.011 38.8123Z" fill="#718096"/>
<path d="M100.349 33.65H101.122C104.149 33.65 106.404 34.9091 106.404 38.814C106.404 42.6511 104.149 43.9102 101.122 43.9102H100.349V33.65ZM97.3867 44.6672H101.509C105.435 44.6672 109.427 43.3444 109.427 38.814C109.427 34.2198 105.435 32.8969 101.509 32.8969H97.3867V44.6672Z" fill="#718096"/>
<path d="M83.9974 43.8472V38.9383H88.5059V38.1175H83.9974V33.7106H88.8274V32.8897H81.0352V44.6641H89.0186V43.8472H83.9974Z" fill="#718096"/>
<path d="M91.0117 44.6649H93.9741V32.8941H91.0117V44.6649Z" fill="#718096"/>
<path d="M38.4086 37.4909C36.3497 42.7784 35.0598 44.7906 32.3579 44.7906C30.771 44.7906 29.412 43.9299 28.7243 43.0812L28 43.8224C28.8301 44.8344 30.6652 45.8624 32.9927 45.8624C37.2408 45.8624 39.6334 43.659 41.7574 37.9292C43.6251 32.8928 44.976 30.9443 47.8081 30.9443C48.7724 30.9443 49.7409 31.2591 50.3838 31.8249L50.9005 31.0081C49.9972 30.3148 48.5161 30 47.2954 30C43.4949 30 40.5326 31.9484 38.4086 37.4909Z" fill="#718096"/>
</g>
<defs>
<clipPath id="clip0">
<rect width="149" height="75" fill="white"/>
</clipPath>
</defs>
</svg>
