<svg width="149" height="75" viewBox="0 0 149 75" fill="none" xmlns="http://www.w3.org/2000/svg">
<g clip-path="url(#clip0)">
<path d="M58.1754 56.2483C58.0992 56.0115 57.8832 55.4788 57.8239 55.0856C57.6926 54.2146 58.15 53.6396 58.5693 53.5086C59.0394 53.3775 59.2215 53.6143 59.4036 54.1597C59.6408 54.9926 59.6662 56.0876 59.5857 57.6561C59.4841 59.7955 58.4126 62.3787 55.7445 62.328C53.4449 62.2772 52.4243 60.789 52.3184 58.5186C52.2676 57.449 52.3438 56.3793 52.7885 54.8657C53.0257 54.054 53.2332 53.7665 53.9658 53.6143C54.5418 53.5086 54.4867 54.1089 54.3597 54.815C54.0717 56.3793 53.9404 57.1361 54.0463 58.9118C54.1479 60.789 55.0119 61.5204 55.9563 61.5204C57.3665 61.5458 57.9933 60.3747 58.2559 58.6751C58.4634 57.3179 58.311 56.6668 58.1754 56.2483ZM88.2737 58.1043C88.8243 58.1043 88.981 58.7554 88.8497 59.1444C88.7184 59.5333 88.2483 59.9815 87.5157 60.1126C87.359 59.7194 87.2785 58.1043 88.2737 58.1043ZM78.0546 58.9879C78.0546 58.5482 77.8175 58.1804 77.5337 58.1804C77.2966 58.1804 76.7502 58.4383 76.7502 59.2754C76.7502 59.9308 76.9832 60.2394 77.089 60.3747C77.8429 60.1379 78.0546 59.508 78.0546 58.9879ZM69.9234 53.665C69.8853 53.2465 69.5592 52.9632 69.1145 52.9632C68.619 52.9632 68.1531 53.4832 68.1997 54.1343C68.2336 54.5656 68.4835 54.9207 68.9832 54.9207C69.5592 54.9207 69.9784 54.2654 69.9234 53.665ZM74.1753 55.1997C74.1288 54.4683 73.9509 54.1428 73.5613 54.1681C73.0404 54.1977 72.799 55.8339 72.9048 57.5547C72.9726 58.6751 73.142 58.8484 73.2945 58.84C73.5867 58.8146 74.277 56.8148 74.1753 55.1997ZM91.5135 57.9436C91.1917 59.2839 90.2091 61.2583 88.7438 61.2583C88.405 61.2583 87.8036 61.1273 87.8036 60.789C87.8036 60.4254 90.1033 60.3747 90.1033 58.6243C90.1033 57.9732 89.5019 57.06 88.6125 57.06C87.4352 57.06 86.2875 58.3411 86.2875 60.1126C86.2875 61.7022 87.2785 62.2265 88.2695 62.2265C89.9931 62.2265 91.0392 60.8186 91.5897 59.6433C91.8523 60.4254 92.0048 62.2265 92.6612 62.2265C92.9195 62.2265 93.1059 62.0954 93.4193 61.3936C94.2028 59.6433 94.9608 57.635 96.0069 57.635C96.3965 57.635 96.1636 58.3411 97.1037 58.3411C97.5484 58.3411 97.8618 57.9775 97.8618 57.5547C97.8618 56.9543 97.3155 56.485 96.477 56.485C94.0206 56.485 93.4997 60.1633 93.1059 60.1633C92.4537 60.1633 92.6612 57.2165 92.1911 57.2165C91.7761 57.2122 91.5686 57.7111 91.5135 57.9436ZM70.6052 61.0765C70.9948 61.0765 71.6724 60.9497 72.2018 60.0999C71.8969 59.4276 71.6809 58.0705 71.6513 57.5758C71.4946 55.0475 72.4729 52.6672 73.5401 52.5996C74.3236 52.5531 74.9504 53.293 75.0223 54.4937C75.2172 57.6477 74.1626 58.9626 73.6375 60.0956C73.7264 60.5353 74.476 61.2837 75.179 61.2837C75.4416 61.2837 75.755 61.1526 75.8355 61.0469C75.7847 60.8651 75.7296 60.6326 75.7296 60.2901C75.7296 58.4637 76.9069 56.9247 77.9276 56.9247C78.7365 56.9247 79.2065 57.9944 79.2065 58.7004C79.2065 59.5333 78.4993 60.214 77.4575 60.8651C77.6396 61.0469 77.9784 61.178 78.2664 61.178C79.7571 61.178 80.5363 59.3769 81.1165 57.7323C81.2224 57.4194 81.4045 56.9755 81.7687 56.9755C82.3955 56.9755 82.6581 61.0977 83.6999 61.0977C84.1446 61.0977 84.513 60.1844 84.513 59.4826C84.513 58.9583 84.3309 58.9076 84.3309 58.1508C84.3309 57.3179 84.7756 56.6119 85.377 56.6119C85.7412 56.6119 85.8767 56.9755 85.8767 57.4194C85.8767 59.0894 84.674 62.1969 82.8995 62.1969C81.5655 62.1969 81.6671 59.9012 81.197 59.9012C80.6719 59.9012 79.9392 62.2223 77.3558 62.2223C76.9366 62.2223 76.4919 62.0151 76.1277 61.5965C75.5009 62.0151 74.9758 62.1969 74.3744 62.1969C73.4088 62.1969 72.9895 61.2034 72.5999 61.2034C72.1298 61.2034 71.6089 62.2223 70.0377 62.2223C68.7842 62.2223 68.5724 60.5523 68.132 60.5523C67.7381 60.5523 67.1367 62.2223 66.4845 62.2223C65.3834 62.2223 65.1505 59.3262 64.1849 59.3262C63.4269 59.3262 61.0341 62.2688 60.3819 62.2011C60.1193 62.1758 60.0092 61.9771 60.0388 61.7192C60.077 61.3598 60.3861 60.3916 60.5132 59.935C60.7249 59.1401 60.9197 58.2734 61.0256 57.9944C61.1315 57.7153 61.4237 57.5166 61.6566 57.5378C61.7752 57.5505 61.8091 57.7661 61.8472 57.9479C61.9785 58.5947 62.1648 59.2501 62.3723 59.2501C62.7408 59.2501 63.952 56.929 64.6593 56.929C65.5232 56.929 65.6248 60.5819 66.8022 60.5819C67.196 60.5819 67.484 60.1126 67.7423 59.5376C67.7678 58.5694 68.0303 57.1911 68.8138 57.1911C69.3644 57.1911 69.6269 58.4172 69.2331 59.4868C69.2204 60.7637 70.0547 61.0765 70.6052 61.0765Z" fill="#718096"/>
<path d="M88.8113 20.1551C88.6165 20.1551 88.3412 20.1551 88.1887 19.8507C88.0617 19.6012 88.104 19.1996 87.8711 19.0178C88.1083 19.0854 88.3581 19.0854 88.5487 19.0854C89.1755 19.0854 89.7726 18.6542 90.23 18.6542C90.5307 18.6542 90.6281 18.8486 90.6281 19.0431C90.6281 19.6604 89.3957 20.1551 88.8113 20.1551ZM89.1162 21.7194C90.5561 21.7194 91.8774 20.5694 91.8774 19.5589C91.8774 19.0896 91.653 18.7007 91.0855 18.633C91.1829 18.7599 91.2252 18.8529 91.2252 19.077C91.2252 19.838 90.0606 20.6836 88.7986 20.6836C88.3412 20.6836 88.2014 21.0006 88.2014 21.1698C88.2014 21.5545 88.5741 21.7194 89.1162 21.7194ZM89.0061 22.3028C89.1882 23.6177 91.1829 25.3892 91.725 25.3469C92.0849 25.3173 92.2247 23.6304 92.2247 22.3028C92.2247 21.5418 92.267 20.9457 91.8647 20.8062C91.221 22.0957 89.5482 22.3578 89.0061 22.3028Z" fill="#718096"/>
<path d="M57.79 31.0113C58.26 31.0113 58.1626 28.1321 58.9249 28.1321C59.107 28.1321 59.1621 28.3139 59.1621 28.5338C59.1621 29.1849 58.8445 30.1404 58.8445 30.6646C58.8445 30.9268 58.9122 31.0113 59.0393 31.0113C59.3739 31.0113 59.9541 27.8404 60.5215 27.8404C60.7037 27.8404 60.7841 28.0222 60.7841 28.1998C60.7841 28.8635 59.9371 30.7746 59.9371 31.3157C59.9371 31.4003 59.9625 31.4679 60.0345 31.4679C60.3818 31.4679 61.0763 29.9713 61.2966 29.2271C61.4236 28.8382 61.5888 28.631 61.7412 28.631C61.881 28.631 62.0038 28.7832 62.0038 29.1045C62.0038 29.8529 61.3093 31.6117 60.6994 32.787C60.2293 33.7003 59.4924 35.0151 59.4924 35.7508C59.4924 36.1228 59.5602 36.5118 60.1023 36.9853C59.2129 36.9304 58.8529 36.8458 58.5226 36.1567C57.0361 39.1035 61.2542 38.816 59.8143 41.4289C59.5517 40.9596 57.4723 40.4733 57.4723 37.7337C57.4723 35.366 59.5517 33.9793 59.5517 32.9984C59.5517 32.8039 59.484 32.6391 59.3019 32.4868C58.8445 32.0979 58.8318 31.7808 58.4676 31.7808C58.205 31.7808 57.8831 32.3896 58.2177 32.9308C58.3278 33.1126 58.4252 33.2225 58.4252 33.3874C58.4252 33.7764 57.8154 34.8122 57.3834 34.8122C56.9514 34.8122 56.6211 33.7468 56.6211 32.0302C56.6211 30.5082 56.9684 28.9692 57.3961 28.9692C57.5189 28.9692 57.5613 29.0538 57.5613 29.1637C57.5613 29.3455 57.5062 29.7049 57.5062 30.3137C57.5147 30.9564 57.6671 31.0113 57.79 31.0113Z" fill="#718096"/>
<path d="M61.3277 35.0663C61.9122 35.0663 62.3949 34.6351 62.3949 33.6838V32.2717C62.3949 31.7305 62.4373 31.1217 62.7973 30.6947C62.7549 30.8765 62.7549 31.0667 62.7549 31.2485C62.7549 32.4408 63.4198 33.2568 63.4198 34.4068C63.4198 34.8338 63.2928 35.0706 62.9624 35.0706C62.6448 35.0706 62.6702 34.7788 62.6025 34.7788C62.5474 34.7788 62.4627 34.9564 62.4627 35.1509C62.4627 35.4426 62.6702 35.8992 63.2547 35.8992C63.7544 35.8992 64.1567 35.4426 64.1567 34.931C64.1567 33.688 63.1869 32.3013 63.1869 30.9737C63.1869 30.3903 63.3394 30.0055 63.4664 29.7011C63.4664 32.4577 65.8084 34.466 65.8084 35.6117C65.8084 35.8739 65.6136 36.0853 65.3213 36.0853C65.0037 36.0853 64.8513 35.8358 64.8513 35.6413C64.8513 35.5441 64.8386 35.5187 64.7962 35.5187C64.7157 35.5187 64.4659 35.7935 64.4659 36.1571C64.4659 36.6137 64.8386 37.1676 65.5331 37.1676C66.3208 37.1676 66.7528 36.5038 66.7528 35.9077C66.7528 34.4533 63.9111 32.2506 63.9111 29.8998C63.9111 29.4982 63.9788 28.8471 64.2711 28.3482C62.4415 29.5236 61.8698 31.0879 61.8698 32.4619C61.8698 33.6542 61.8275 34.2461 61.2176 34.2461C60.9 34.2461 60.8153 33.9544 60.7052 33.9544C60.6205 33.9544 60.5781 34.2038 60.5781 34.2715C60.5781 34.7788 60.955 35.0663 61.3277 35.0663Z" fill="#718096"/>
<path d="M82.3386 19.4783C82.5165 19.3599 83.2957 19.5459 84.3079 19.047C84.4307 18.9794 84.5578 18.9498 84.6679 18.9498C85.1549 18.9498 85.0278 19.5036 85.4725 19.5036C85.8198 19.5036 86.2645 19.2119 86.527 19.2119C86.9421 19.2119 87.5392 20.5141 87.5392 21.1229C87.5392 21.829 86.472 22.2602 85.21 22.2602C83.3677 22.2602 82.2539 20.6536 82.2539 19.6135C82.2539 19.5332 82.2963 19.5079 82.3386 19.4783ZM85.3624 21.2371C85.9723 21.2371 86.4296 20.958 86.4296 20.7931C86.4296 20.7382 86.3449 20.6959 86.1671 20.6959C85.985 20.6959 85.625 20.6832 84.9474 20.5691C84.3629 20.4718 83.9183 20.252 83.7531 20.252C83.698 20.252 83.6684 20.2816 83.6684 20.3196C83.6684 20.6832 84.3333 21.2371 85.3624 21.2371Z" fill="#718096"/>
<path d="M61.6162 40.2879C61.1588 40.3978 60.4219 41.1165 60.4219 42.2538C60.4219 43.611 61.8787 45.6996 64.2757 45.6996C66.3001 45.6996 66.7998 44.3001 66.7998 43.3573C66.7998 41.2687 65.5124 39.7974 63.8311 39.7974C62.9163 39.7974 62.0989 40.4612 62.0989 41.4463C62.0989 42.3595 62.7935 43.7294 64.4409 43.7294C65.2159 43.7294 65.6733 43.1755 65.6733 42.5413C65.6733 41.9198 65.1058 41.0616 64.2715 41.0616C64.0216 41.0616 63.8438 41.2265 63.8438 41.4886C63.8438 41.8184 64.3012 42.1524 64.8686 42.1524C65.0084 42.1524 65.1185 42.1228 65.1736 42.0974C65.199 42.1397 65.2159 42.2073 65.2159 42.2623C65.2159 42.5794 64.911 42.7739 64.4409 42.7739C63.7337 42.7739 63.0561 42.2496 63.0561 41.4167C63.0561 40.9178 63.488 40.5584 64.1106 40.5584C65.343 40.5584 66.0799 41.6535 66.0799 42.7485C66.0799 43.7294 65.542 44.3001 64.4282 44.3001C62.2133 44.3044 61.1334 42.3088 61.6162 40.2879Z" fill="#718096"/>
<path d="M77.4471 48.4008C78.112 48.4008 78.0781 48.3458 78.2856 48.3458C78.4931 48.3458 78.5058 48.4684 78.5058 48.553C78.5058 48.8574 77.824 49.2337 76.6213 49.2337C75.914 49.2337 75.482 48.8574 75.3592 48.443C74.6647 48.887 73.6144 49.2886 72.5726 49.2886C69.7309 49.2886 69.0067 48.0541 68.1216 47.6567C67.444 47.3523 66.4022 47.9484 64.9453 46.3291C65.1401 46.3714 65.4027 46.3841 65.6102 46.3841C66.885 46.3841 67.5668 45.7626 67.5668 44.7648C67.5668 44.6379 67.5541 44.5027 67.5371 44.38C67.9268 44.5322 68.8119 45.196 69.0236 46.3714C69.049 46.5109 69.6208 46.6335 69.9808 46.6335C70.4805 46.6335 71.12 46.4263 71.2174 45.6104C72.8817 45.4708 74.004 44.49 74.2412 43.2427C74.8383 43.4372 75.5159 43.9784 75.6811 44.2532C75.9182 44.1686 76.1935 44.1306 76.5112 44.1306C76.9558 44.1306 77.4556 44.2152 78.0485 44.3927C78.0781 44.2109 78.1035 43.9911 78.383 43.9911C78.7981 43.9911 78.688 44.4477 78.8277 44.7098C78.8955 44.8493 79.2427 44.9297 79.2427 45.2087C79.2427 45.4708 79.0183 45.5681 78.8828 45.5681C78.8277 45.5681 78.7599 45.5554 78.7176 45.5385C78.4423 45.6357 78.4254 47.6271 77.2607 47.6271C76.401 47.6271 75.6091 46.921 75.2618 46.0374C75.1644 45.7752 74.9569 45.6061 74.7621 45.6061C74.5419 45.6061 74.4148 45.6484 74.1522 45.9401C73.4026 46.7561 72.1533 47.4622 70.616 47.4622C70.1459 47.4622 69.769 47.4199 69.6716 47.4199C69.6165 47.4199 69.6165 47.4326 69.6165 47.4495C69.6165 47.5467 70.0866 47.9188 71.1157 47.9188C73.5551 47.9188 74.1522 46.549 74.5419 46.549C74.5969 46.549 74.7621 46.5489 74.8595 46.773C75.4312 48.0964 76.6721 48.4008 77.4471 48.4008ZM76.3714 45.6315C76.3714 45.9359 76.6213 46.1854 76.9262 46.1854C77.2311 46.1854 77.481 45.9359 77.481 45.6315C77.481 45.3271 77.2311 45.0776 76.9262 45.0776C76.6213 45.0776 76.3714 45.3271 76.3714 45.6315Z" fill="#718096"/>
<path d="M87.3563 38.7243C87.1615 38.7243 86.954 38.8765 86.954 39.2528C86.954 39.6671 87.2716 39.9293 87.4537 40.0138C87.5511 40.0688 87.7036 40.1237 87.856 40.1237C88.2583 40.1237 88.5802 40.0138 88.5802 39.6798C88.576 39.2528 87.9534 38.7243 87.3563 38.7243ZM85.8613 39.5826C85.5691 39.5826 83.9598 41.7303 82.9222 41.7303C82.6724 41.7303 82.4648 41.261 82.4648 40.9017C82.4648 40.7072 82.5877 40.5677 83.0366 40.4704C85.4209 39.9293 84.8957 38.1451 86.9286 38.1451C88.0508 38.1451 89.3002 38.9061 89.3002 40.6226C89.3002 42.4491 86.6956 44.7195 86.306 44.7195C85.9884 44.7195 85.6411 44.2629 85.6411 43.9584C85.6411 43.8612 85.6835 43.7386 85.9587 43.6244C87.2885 43.096 88.0508 41.8783 88.0508 41.2568C88.0508 41.1173 87.9831 40.982 87.801 40.982C87.5638 40.982 86.5559 43.2778 85.4294 43.2778C84.6501 43.2778 83.8582 42.5717 83.8582 42.2419C83.8582 41.6881 86.107 40.6649 86.107 39.887C86.1112 39.5952 85.9714 39.5826 85.8613 39.5826Z" fill="#718096"/>
<path d="M58.4143 21.43C58.4143 21.43 58.012 21.7344 57.5123 21.7344C56.9151 21.7344 56.4451 21.2905 56.4451 20.669C56.4451 20.2378 56.6653 19.7981 57.1777 19.574C57.165 19.6585 57.165 19.7262 57.165 19.8107C57.165 20.5971 57.6097 21.1933 58.4143 21.43ZM61.3789 24.0894C61.0739 24.4487 60.7563 25.0576 60.7563 25.6791C60.7563 26.4274 61.2137 27.0489 61.9209 27.0489C62.5985 27.0489 62.9204 26.4655 62.9204 25.8735C62.9204 24.9476 62.0734 24.2965 61.3789 24.0894ZM56.7754 24.639C56.75 24.6813 56.733 24.7362 56.733 24.7912C56.733 24.918 56.8728 25.0533 56.9956 25.0533C57.1057 25.0533 57.1777 25.0237 57.2328 25.0237C57.5631 25.0237 57.94 25.2605 58.4821 25.2605C58.7997 25.2605 59.1766 25.1633 59.6467 24.9307C60.6462 24.4318 61.0358 23.2015 61.0358 22.9901C61.0358 22.728 60.8241 22.7618 60.6462 22.5208C60.4683 22.2798 60.5361 22.0642 60.426 21.9543C60.3625 21.8909 60.1634 21.8866 59.9135 21.857C59.8288 21.8486 59.7187 21.8444 59.6086 21.8444C59.1512 21.8444 58.6092 21.8993 57.9993 22.2883C56.7923 23.0535 56.9702 24.3219 56.7754 24.639ZM60.0364 22.9225C60.1338 23.0535 60.3963 23.2142 60.3963 23.3114C60.3963 23.5059 60.2862 23.7554 60.0618 23.7554C59.5747 23.7554 59.1894 23.0197 59.1894 22.6054C59.1894 22.3433 59.3418 22.3137 59.5493 22.3137C59.6467 22.3137 59.6891 22.3263 59.7568 22.3686C59.8839 22.4405 59.8839 22.7153 60.0364 22.9225ZM58.7574 24.6136C58.3 24.6136 57.8003 24.0471 57.8003 23.5313C57.8003 23.2565 58.0078 22.9098 58.1602 22.9098C58.2153 22.9098 58.2449 22.9521 58.2576 23.0493C58.3424 23.7258 58.7828 24.1147 59.2021 24.3092C59.2444 24.3388 59.2698 24.3515 59.2698 24.3769C59.2741 24.4741 59.0072 24.6136 58.7574 24.6136ZM59.939 21.1256C60.0067 20.9058 60.0618 20.6267 60.0618 20.3223C60.0618 19.6585 59.7568 18.6481 58.8124 18.6481C58.2704 18.6481 57.885 19.0751 57.885 19.5909C57.885 20.6817 58.9818 21.1256 59.939 21.1256ZM56.3477 26.6642C56.3477 27.7169 56.6653 28.2158 57.237 28.2158C57.6817 28.2158 58.2788 27.8987 58.9818 27.2899C58.4398 27.4125 58.0247 27.4971 57.652 27.4971C57.1523 27.4928 56.7627 27.2983 56.3477 26.6642ZM56.8304 25.4296C56.8177 25.5015 56.8177 25.5691 56.8177 25.6368C56.8177 26.2879 57.165 26.6473 57.6224 26.6473C57.9697 26.6473 58.372 26.4401 58.732 25.9835C58.5795 26.0088 58.4016 26.0258 58.2322 26.0258C57.7198 26.0258 57.165 25.8862 56.8304 25.4296ZM60.2312 25.2351C59.9135 25.3197 59.2444 25.7044 59.2444 26.3978C59.2444 26.8967 59.634 27.2138 60.1168 27.2138C60.3667 27.2138 60.5446 27.1588 60.6589 27.0743C60.2693 26.7022 60.1338 26.2837 60.1338 25.8693C60.1338 25.5818 60.1761 25.4042 60.2312 25.2351ZM60.7309 21.4427C60.7309 21.7471 60.9808 21.9966 61.2857 21.9966C61.5906 21.9966 61.8405 21.7471 61.8405 21.4427C61.8405 21.1383 61.5906 20.8889 61.2857 20.8889C60.9765 20.8889 60.7309 21.1383 60.7309 21.4427ZM61.4509 22.6899C61.4509 22.9943 61.7007 23.2438 62.0056 23.2438C62.3106 23.2438 62.5604 22.9943 62.5604 22.6899C62.5604 22.3855 62.3106 22.1361 62.0056 22.1361C61.7007 22.1361 61.4509 22.3855 61.4509 22.6899Z" fill="#718096"/>
<path d="M83.0904 29.491C83.0904 29.2162 83.3402 28.9794 83.6155 28.9794C83.9204 28.9794 84.1576 29.2162 84.1576 29.491C84.1576 29.8081 83.9204 30.0322 83.6155 30.0322C83.3402 30.028 83.0904 29.8081 83.0904 29.491ZM78.2201 25.2251C78.2201 25.5295 78.47 25.7789 78.7749 25.7789C79.0798 25.7789 79.3297 25.5295 79.3297 25.2251C79.3297 24.9207 79.0798 24.6712 78.7749 24.6712C78.47 24.6712 78.2201 24.9207 78.2201 25.2251ZM77.75 27.1783C77.75 27.6096 78.11 27.969 78.5419 27.969C78.9697 27.969 79.3339 27.6096 79.3339 27.1783C79.3339 26.7513 78.9739 26.3877 78.5419 26.3877C78.11 26.3877 77.75 26.7471 77.75 27.1783ZM79.4948 26.2905C79.4948 26.764 79.8717 27.1361 80.3376 27.1361C80.8077 27.1361 81.1846 26.764 81.1846 26.2905C81.1846 25.8212 80.8077 25.4449 80.3376 25.4449C79.8717 25.4449 79.4948 25.8212 79.4948 26.2905ZM79.5668 24.4894C79.5668 24.7811 79.804 25.0179 80.092 25.0179C80.3842 25.0179 80.6213 24.7811 80.6213 24.4894C80.6213 24.1977 80.3842 23.9651 80.092 23.9651C79.804 23.9651 79.5668 24.2019 79.5668 24.4894ZM82.0782 23.1618C82.0782 23.4536 82.3154 23.6861 82.6076 23.6861C82.8998 23.6861 83.1369 23.4493 83.1369 23.1618C83.1369 22.8701 82.8998 22.6334 82.6076 22.6334C82.3111 22.6376 82.0782 22.8701 82.0782 23.1618ZM81.0364 24.8657C81.0364 25.3519 81.4387 25.7493 81.9257 25.7493C82.4128 25.7493 82.8151 25.3477 82.8151 24.8657C82.8151 24.3795 82.4128 23.9778 81.9257 23.9778C81.4387 23.9778 81.0364 24.3795 81.0364 24.8657ZM79.6092 28.1043C79.6092 28.4087 79.859 28.6581 80.164 28.6581C80.4689 28.6581 80.7187 28.4087 80.7187 28.1043C80.7187 27.7998 80.4689 27.5504 80.164 27.5504C79.859 27.5504 79.6092 27.7998 79.6092 28.1043ZM81.426 26.9966C81.426 27.301 81.6759 27.5504 81.9808 27.5504C82.2857 27.5504 82.5356 27.301 82.5356 26.9966C82.5356 26.6921 82.2857 26.4427 81.9808 26.4427C81.6716 26.4427 81.426 26.6921 81.426 26.9966ZM80.9093 28.9498C80.9093 29.4741 81.3371 29.9053 81.8664 29.9053C82.3958 29.9053 82.8236 29.4741 82.8236 28.9498C82.8236 28.4256 82.3916 27.9943 81.8664 27.9943C81.3413 27.9943 80.9093 28.4256 80.9093 28.9498ZM82.9083 27.7703C82.9083 28.1296 83.2005 28.4214 83.5604 28.4214C83.9204 28.4214 84.2126 28.1296 84.2126 27.7703C84.2126 27.4109 83.9204 27.1192 83.5604 27.1192C83.2005 27.1234 82.9083 27.4109 82.9083 27.7703ZM82.8659 26.0284C82.8659 26.3497 83.1285 26.6118 83.4461 26.6118C83.7637 26.6118 84.0305 26.3497 84.0305 26.0284C84.0305 25.7113 83.768 25.4491 83.4461 25.4491C83.1327 25.4449 82.8659 25.7113 82.8659 26.0284Z" fill="#718096"/>
<path d="M84.2789 44.1932C83.9189 44.4722 83.0762 45.0937 81.6744 45.0937C80.9248 45.0937 80.5902 44.857 80.4801 44.857C80.3403 44.857 80.1879 44.9965 80.0354 45.1741C79.7051 45.563 79.2773 46.2818 79.2773 47.0724C79.2773 47.6262 79.7093 48.1801 80.5097 48.1801C83.1058 48.1801 85.0454 46.5608 85.0454 45.2459C85.0412 44.4976 84.5965 44.1932 84.2789 44.1932ZM83.5589 44.041C83.6691 43.9437 83.6987 43.7915 83.6987 43.6393V43.3222C83.6987 42.9206 83.0931 42.688 82.2588 42.688C81.2466 42.688 80.7045 43.1447 80.7045 43.3391V43.9776C80.7045 44.2397 81.3144 44.506 82.064 44.506C82.6569 44.4976 83.199 44.3454 83.5589 44.041ZM83.4446 45.4108C83.5166 45.4108 83.5971 45.4531 83.5971 45.7025C83.5971 46.0069 83.4573 46.4086 82.9618 46.7257C82.6145 46.9625 82.1445 47.1569 81.4499 47.1696C81.56 46.8398 81.6447 46.4932 81.6447 46.1592C81.6447 46.0492 81.632 45.9647 81.6151 45.8421H81.7972C82.8941 45.8378 83.3641 45.4108 83.4446 45.4108Z" fill="#718096"/>
<path d="M78.1517 28.4927C78.3042 29.6681 79.8881 29.072 79.8881 30.501C79.8881 30.7082 79.833 31.0126 79.833 31.2747C79.833 31.5791 79.8584 31.8412 80.0956 31.8412C80.3328 31.8412 80.3878 31.6763 80.3878 31.4523C80.3878 31.2282 80.3328 30.9534 80.3328 30.8012C80.3328 30.315 80.68 30.205 80.8876 30.205C81.4169 30.205 81.815 30.7462 82.607 30.7462C82.4249 31.6341 80.5953 31.3973 80.5953 32.3655C80.5953 32.8517 81.0824 32.9616 81.4 32.9616C81.6922 32.9616 81.7896 32.9193 81.7896 32.6699C81.7896 32.5304 81.76 32.3782 81.76 32.2809C81.76 32.226 81.8023 32.171 81.8701 32.171C82.175 32.171 83.67 33.3083 83.67 33.655C83.67 33.9721 82.0903 34.2934 81.6329 34.2934C81.4932 34.2934 81.4677 34.1962 81.4677 34.1412C81.4677 34.044 81.7049 33.7522 81.7049 33.5874C81.7049 33.4647 81.4974 33.3802 80.9426 33.3802C80.68 33.3802 80.4852 33.4098 80.4852 33.6169C80.4852 33.989 81.0951 34.4456 81.0951 34.7923C81.0951 35.0713 80.9299 35.2362 80.4852 35.2362C80.1083 35.2362 79.5451 34.9445 79.5451 34.4625C79.5451 34.0736 79.9431 33.6888 79.9431 33.4521C79.9431 33.3844 79.8923 33.2703 79.7229 33.2703C79.2105 33.2703 79.0707 34.6274 77.2539 34.7796C77.5461 34.5175 77.796 34.2258 77.796 33.6296C77.796 33.3379 77.7282 33.1011 77.7282 32.7841C77.7282 32.3697 77.923 32.1626 78.1983 32.1626C78.7108 32.1626 78.9606 32.8813 79.2952 32.8813C79.4773 32.8813 79.6721 32.7164 79.6721 32.467C79.6721 31.4142 77.6478 31.5664 77.6478 30.0867C77.6351 29.6808 77.7748 29.1861 78.1517 28.4927ZM84.7668 32.5473C84.7668 32.894 84.8769 33.2956 85.2242 33.2956C85.5164 33.2956 85.7663 32.8517 85.7663 32.3697C85.7663 31.8159 85.6689 31.3846 85.6689 31.1648C85.6689 31.0675 85.7112 31.0252 85.7663 31.0252C85.9738 31.0379 86.1686 31.6087 86.3931 31.6087C86.6429 31.6087 87.0156 31.1521 87.1681 31.1521C87.2104 31.1521 87.2231 31.207 87.2231 31.2197C87.2231 31.4269 86.9055 31.8835 86.9055 32.0653C86.9055 32.2175 87.7102 32.2429 87.7102 32.3824C87.7102 32.5896 86.8674 32.5896 86.4651 32.7714C86.0754 32.9363 85.8383 33.1434 85.8383 33.4225C85.8383 33.6973 86.1178 33.7522 86.5032 33.7522C87.4307 33.7522 88.0828 33.2533 88.2904 33.2533C88.3327 33.2533 88.3581 33.2787 88.3581 33.321C88.3581 33.4605 87.888 33.9171 87.888 34.1243C87.888 34.3611 88.7477 34.6359 88.735 34.7754C88.7223 34.8177 88.6673 34.8304 88.5699 34.8304C88.4174 34.8304 88.1803 34.7881 87.9981 34.7881C87.888 34.7881 87.7906 34.8008 87.7483 34.8557C87.6509 34.9656 87.7779 35.7013 87.5831 35.7013C87.401 35.7013 86.9309 34.0693 85.8637 34.0693C85.7112 34.0693 85.6011 34.1919 85.6011 34.4033C85.6011 34.9572 86.1432 35.5914 86.6556 35.9C86.8886 36.0522 87.2782 36.2044 87.2782 36.289C87.2782 36.4539 86.3931 36.3017 86.3931 36.5807C86.3931 36.8301 86.5032 37.2064 86.5032 37.4263C86.5032 37.4939 86.4905 37.5785 86.4058 37.5785C86.2406 37.5785 85.8341 36.8175 85.6435 36.8175C85.4783 36.8175 85.1141 37.2741 84.9616 37.2741C84.9193 37.2741 84.8939 37.2318 84.8939 37.1937C84.8939 36.8767 85.4063 36.1537 85.4063 35.4476C85.4063 35.1136 85.364 34.3949 84.9616 34.3949C84.6271 34.3949 84.2544 34.9191 84.085 35.4476C83.9876 35.752 84.0553 36.9274 83.8351 36.9274C83.6276 36.9274 83.6827 36.1368 83.4032 36.1368C83.1999 36.1368 82.7552 36.5088 82.6027 36.5088C82.5731 36.5088 82.5477 36.4961 82.5477 36.4665C82.5477 36.3017 82.95 35.7605 82.95 35.6506C82.95 35.4434 82.0352 35.4138 82.0352 35.2489C82.0352 35.1517 82.3952 35.084 82.7298 35.0248C83.437 34.9022 84.4746 34.3864 84.4746 33.6677C84.4746 32.8644 83.6996 32.5177 83.1872 32.1837C82.9246 32.0188 82.6324 31.8793 82.6324 31.7694C82.6324 31.6594 82.9669 31.6594 83.1025 31.6594C83.31 31.6594 83.5175 31.6467 83.5175 31.4819C83.5175 31.355 83.4879 31.1098 83.4879 30.9153C83.4879 30.7758 83.5006 30.6659 83.5598 30.6659C83.7674 30.6659 84.0596 31.3423 84.1993 31.3423C84.4196 31.3423 84.7245 30.7885 84.9362 30.7885C85.004 30.7885 85.0336 30.8308 85.0336 30.9534C85.0294 31.4692 84.7668 32.0484 84.7668 32.5473Z" fill="#718096"/>
<path d="M78.5531 36.3808C79.1926 36.4653 79.345 36.6852 79.345 36.867C79.345 37.1714 79.0655 37.2686 78.8029 37.2686C78.6081 37.2686 78.3879 37.2264 78.1507 37.2264C77.8458 37.2264 77.5409 37.294 77.291 37.5857C77.4689 37.6111 77.7357 37.7379 77.7357 38.017C77.7357 38.8203 75.5039 38.1565 75.5039 40.2197C75.5039 41.3147 76.6431 42.5028 78.3583 42.5028C79.2476 42.5028 79.8151 42.211 79.8151 41.877C79.8151 41.6149 79.345 41.7925 79.345 41.5726C79.345 41.4754 79.5102 41.2936 79.5102 41.1414C79.5102 41.0737 79.4551 40.9469 79.345 40.9469C79.0952 40.9469 78.6208 41.3486 77.6637 41.3486C76.9141 41.3486 76.1772 40.9215 76.1772 40.3381C76.1772 40.2155 76.2323 40.1436 76.317 40.1436C76.4017 40.1436 76.5118 40.1986 76.6092 40.1986C76.6939 40.1986 76.7066 40.1436 76.7066 39.9914C76.7066 39.8392 76.7066 39.408 76.9692 39.408C77.2317 39.408 77.7315 40.3761 79.6499 40.3761C80.2852 40.3761 81.5218 40.2535 81.9792 39.835C81.9665 41.357 80.7722 43.3653 78.2778 43.3653C75.686 43.3653 74.2969 41.2894 74.2969 39.3784C74.2969 37.2602 76.029 35.3365 78.4006 35.3365C79.0105 35.3365 79.5229 35.5437 79.5229 35.8058C79.5229 36.1778 78.6208 35.9538 78.5531 36.3808ZM82.8093 37.1164C82.9067 37.2686 82.949 37.4208 82.949 37.5604C82.949 37.9493 82.6865 38.3087 82.6865 38.7103C82.6865 39.167 83.0337 39.539 83.5589 39.539C84.1264 39.539 84.516 39.0824 84.516 38.5412C84.516 37.8098 83.8468 37.1841 82.8093 37.1164ZM78.2185 38.0043C78.3583 38.1438 78.4006 38.2791 78.4006 38.4186C78.4006 38.6258 78.3032 38.8499 78.3032 39.0824C78.3032 39.4122 78.5531 39.7039 78.913 39.7039C79.3027 39.7039 79.5652 39.3995 79.5652 39.0401C79.5652 38.5159 79.0232 38.0043 78.2185 38.0043ZM80.0607 35.6494C81.5176 35.9242 82.3095 37.0192 82.3095 38.0466C82.3095 38.7526 81.8649 39.4037 81.0898 39.4037C80.3826 39.4037 79.8702 38.9175 79.8702 38.1438C79.8702 37.5604 80.3233 36.9515 80.3233 36.3596C80.3233 36.1186 80.2555 35.8861 80.0607 35.6494ZM80.7849 37.4927C80.7849 37.6872 80.9247 37.8394 81.1195 37.8394C81.3397 37.8394 81.4795 37.6449 81.4795 37.4251C81.4795 37.1333 81.2169 36.7317 80.967 36.7317C80.8569 36.7317 80.8993 36.8966 80.8696 37.0784C80.8527 37.2137 80.7849 37.3786 80.7849 37.4927Z" fill="#718096"/>
<path d="M65.4754 23.2455C65.9455 23.2455 66.4876 20.696 66.4876 20.269C66.4876 20.1591 66.4452 20.0745 66.3478 20.0745C65.9158 20.0745 65.3229 22.4971 65.3229 23.0383C65.3229 23.1355 65.3483 23.2455 65.4754 23.2455ZM68.8719 24.0065C69.2192 24.0065 69.6045 22.6747 69.6045 21.846C69.6045 21.6642 69.5791 21.474 69.4944 21.474C69.2022 21.474 68.7194 22.8438 68.7194 23.5922C68.7194 23.8796 68.7872 24.0065 68.8719 24.0065ZM66.6104 22.7719C66.7628 22.7719 66.9577 22.6028 67.3176 22.2054C67.343 22.0236 67.343 21.8587 67.343 21.6515C67.343 21.3767 67.2329 21.0681 67.0678 21.0681C66.6527 21.0681 66.4452 22.1758 66.4452 22.4675C66.4452 22.6366 66.5257 22.7719 66.6104 22.7719ZM68.5119 22.2054C68.5119 21.9686 68.4569 21.9137 68.4018 21.9137C68.262 21.9137 68.1096 22.0786 67.8894 22.4548C67.9148 22.9537 67.9995 23.1736 68.1392 23.1736C68.2875 23.1736 68.5119 22.6916 68.5119 22.2054ZM69.5791 20.5734C70.4939 20.5734 70.9089 21.3641 70.9089 22.2477C70.9089 22.6366 70.7988 23.2032 70.6167 23.2032C70.4346 23.2032 70.4643 22.8861 70.4346 22.5944C70.4092 22.2223 70.3372 22.1378 70.2101 22.1378C69.973 22.1378 69.8205 22.6916 69.8205 23.2032C69.8205 23.5203 69.8756 23.8796 70.1255 23.8796C70.2652 23.8796 70.388 23.812 70.4727 23.7274C70.4177 24.3616 69.9433 24.9197 69.2784 24.9197C68.0588 24.9197 67.6014 23.4949 67.4616 22.662C66.7247 23.4357 66.0471 24.0065 64.8274 24.0065C63.6925 24.0065 63.1758 23.1736 63.1758 22.3872C63.1758 22.1504 63.2605 21.5416 63.5527 21.5416C63.9 21.5416 63.595 22.6747 64.2727 22.6747C64.4378 22.6747 64.7427 22.5352 64.9121 22.0786C65.0095 21.7995 65.0646 21.512 65.0646 21.2626C65.0646 20.8863 64.9799 20.6538 64.7046 20.6538C64.4675 20.6538 64.1752 20.8313 64.0778 20.9286C64.4124 19.9308 65.2171 19.4192 66.1022 19.4192C67.1991 19.4192 67.7792 20.3874 67.7792 21.4697C67.7792 21.622 67.7665 21.7868 67.7369 21.939C68.2197 21.1696 68.8719 20.5734 69.5791 20.5734Z" fill="#718096"/>
<path d="M66.9831 24.2974C66.3859 24.2974 66.3605 25.0204 66.3605 26.4706C65.9159 25.5151 65.1832 24.4919 64.3235 24.4919C63.7391 24.4919 63.5188 24.8809 63.5188 25.5573C63.5188 25.6969 63.5315 25.904 63.5612 26.0266C63.629 25.7899 63.8534 25.6969 64.1287 25.6969C64.7258 25.6969 65.4458 26.1535 65.9159 26.7792C65.3738 26.682 64.8486 26.5847 64.404 26.5847C64.1244 26.5847 63.8746 26.6143 63.6671 26.7073C63.2647 26.8849 62.7227 27.481 62.7227 28.3816C62.7227 28.5211 62.7354 28.6733 62.765 28.8382C63.252 27.7558 64.5395 27.2739 65.3738 27.2739C65.5389 27.2739 65.666 27.2865 65.7634 27.3035C65.3314 27.6924 65.2383 28.3689 65.2086 28.8255C65.1959 29.0454 65.1112 29.0623 64.9587 29.0623C64.9587 29.5189 65.3187 30.1996 65.3187 30.542C65.3187 30.6646 65.251 30.7788 65.179 30.8042C65.179 31.413 65.7888 31.8569 65.7888 32.2416C65.7888 32.3389 65.7634 32.4234 65.721 32.4657C65.7634 32.7152 66.4325 33.1337 66.5215 33.3451C66.6273 33.5988 66.7459 33.6453 66.8179 33.6453C67.0551 33.6453 67.4278 33.3663 67.4278 33.1168C67.4278 33.0323 67.36 32.9392 67.3049 32.897C67.0424 32.7025 66.9026 32.2881 66.7925 32.0133C66.6951 32.0133 66.5681 31.9711 66.5257 31.8104C66.4495 31.5229 66.4452 30.9902 66.3351 30.6731C66.153 30.6308 66.0726 30.5632 66.0726 30.1869C66.0726 30.0051 66.1827 29.299 66.1827 29.0496C66.098 29.0496 65.9879 28.9946 65.9879 28.8297C65.9879 28.3858 66.4325 28.0391 66.5553 27.4726C67.3473 28.0518 67.5379 28.6479 67.5379 29.1764C67.5379 29.4512 67.4955 29.7176 67.4405 29.967C68.0249 29.6753 68.8973 29.2483 68.8973 28.3731C68.8973 27.8615 68.6602 27.2908 67.0932 27.0709C67.5802 26.8891 68.1901 26.7961 68.7025 26.7961C69.5919 26.7961 70.1043 27.0709 70.2144 27.6967C70.3965 27.4218 70.532 27.1005 70.532 26.8088C70.532 26.1281 69.9645 25.6884 69.2404 25.6884C68.3933 25.6884 67.6437 26.1323 66.8391 26.6735C67.1991 25.9252 67.4489 25.4812 67.8936 25.4812C67.9614 25.4812 68.0334 25.4939 68.1011 25.5108C67.9402 24.8893 67.3177 24.2974 66.9831 24.2974Z" fill="#718096"/>
<path d="M90.3522 34.2818C91.0467 34.2818 91.6015 35.1823 91.6015 36.2351C91.6015 37.3555 91.0722 38.5731 90.132 39.406C90.1193 37.5373 87.8281 38.1334 87.8281 36.7763C87.8281 36.1928 88.2474 35.8081 88.7471 35.8081C89.1918 35.8081 89.5391 35.9307 89.7889 36.1844C89.5391 35.9476 89.412 35.6136 89.412 35.2965C89.412 34.7638 89.7466 34.2818 90.3522 34.2818Z" fill="#718096"/>
<path d="M77.9694 21.1281C78.3293 21.4748 78.647 21.627 79.0366 21.627C79.189 21.627 79.3711 21.5848 79.4685 21.5848C79.5914 21.5848 79.6761 21.6397 79.6761 21.737C79.6761 21.8892 79.5363 22.1386 79.3711 22.2781C79.5363 22.3458 79.7184 22.3754 79.9132 22.3754C80.7009 22.3754 81.603 21.8765 81.603 20.6293C81.7682 20.8491 81.8656 21.3057 81.8656 21.5171C81.8656 23.0265 80.756 23.6057 79.7311 23.6057C79.0662 23.6057 78.7317 23.3858 78.647 23.3858C78.3844 23.3858 78.3971 23.9143 78.2192 23.8974C77.9016 23.8425 77.6094 23.1364 77.6094 22.3881C77.6094 21.9441 77.7195 21.4748 77.9694 21.1281ZM80.0614 20.1177C79.9513 19.9359 79.5363 19.8429 79.3415 19.8429C78.7317 19.8429 78.3124 20.2699 78.2319 20.6588C78.1769 20.5193 78.1345 20.3544 78.1345 20.1896C78.1345 19.5807 78.5495 18.8324 79.566 18.8324C80.4511 18.8324 80.7983 19.3017 80.9254 19.3017C81.0651 19.3017 81.2007 19.1622 81.315 19.1622C81.4675 19.1622 81.4675 19.3989 81.4675 19.5638C81.4675 20.1177 81.2176 21.0732 80.5908 21.4199C80.4807 21.1831 80.2563 20.921 79.9005 20.7561C79.8031 20.7138 79.7608 20.6335 79.7608 20.5489C79.7608 20.3925 79.9005 20.198 80.0614 20.1177Z" fill="#718096"/>
<path d="M68.3304 17.0962C68.3304 17.5824 70.0625 19.9501 70.3971 19.9501C70.6766 19.9501 70.8841 19.4639 70.8841 19.0495C70.8841 18.9396 70.8545 18.8297 70.8036 18.7451C70.5538 18.3984 68.792 17.0159 68.4024 17.0159C68.3558 17.0117 68.3304 17.054 68.3304 17.0962ZM58.1367 15.6672C58.1367 15.9463 57.0822 16.8722 56.7095 16.8722C56.5697 16.8722 56.5274 16.7073 56.5274 16.5551C56.5274 16.2803 56.6544 15.8913 56.8069 15.7645C56.9848 15.5996 57.404 15.515 57.7217 15.515C57.9165 15.5192 58.1367 15.5573 58.1367 15.6672ZM70.7994 16.4705C70.7994 15.6376 68.5506 14.1325 68.5252 13.4814C68.521 13.4222 68.5548 13.363 68.6057 13.308C68.991 12.9022 70.5919 12.6062 70.5919 12.2595C70.5919 12.082 70.2573 12.082 70.0922 12.082C68.8047 12.082 66.9159 12.5513 66.9159 13.0079C66.9159 13.4814 68.6057 14.6271 68.6057 15.1979C68.6057 15.3501 68.5083 15.4051 68.3558 15.4051C67.8857 15.4051 66.8566 14.8385 66.3738 14.8385C66.1536 14.8385 66.0689 14.9907 66.0689 15.2148C66.0689 15.8786 66.8608 17.1385 66.8608 17.5106C66.8608 17.5529 66.8481 17.6078 66.7931 17.6078C66.5432 17.6078 65.3659 16.2253 64.9508 16.2253C64.7984 16.2253 64.7857 16.4325 64.7857 16.7369V17.2062C64.7857 17.5233 64.773 17.7177 64.6205 17.7177C64.2605 17.7177 64.0911 16.7073 63.7481 16.7073C63.3881 16.7073 63.3161 18.5084 62.9731 18.5084C62.5708 18.5084 62.918 16.5297 62.5284 16.5297C62.1007 16.5297 61.6136 17.8446 61.3087 17.8446C61.1986 17.8446 61.169 17.7347 61.169 17.6374C61.169 17.2358 61.4061 16.5847 61.4061 16.1999C61.4061 16.0054 61.3511 15.8955 61.1859 15.8955C60.7539 15.8955 59.8138 16.5889 59.4538 16.5889C59.3987 16.5889 59.3267 16.5635 59.3267 16.5043C59.3267 16.1746 60.8386 15.1218 60.8386 14.6483C60.8386 14.1917 58.7592 14.4961 58.7592 13.9676C58.7592 13.5237 60.2457 13.0671 60.2457 12.6104C60.2457 12.2088 58.484 12.0312 57.8064 12.0312C56.989 12.0312 56.5443 12.1285 56.5443 12.361C56.5443 12.7204 58.4035 12.8345 58.4035 13.1516C58.4035 13.456 56.4766 14.272 56.4766 14.7455C56.4766 15.1599 59.1954 14.7751 59.1954 15.2021C59.1954 15.6714 56.8238 17.7093 56.8238 18.3857C56.8238 18.538 56.9339 18.6056 57.0864 18.6056C57.8064 18.6056 59.6782 17.2358 60.1949 17.2358C60.377 17.2358 60.3897 17.4556 60.3897 17.6501C60.3897 18.0095 60.2669 18.5633 60.2669 18.965C60.2669 19.2821 60.3516 19.5061 60.6269 19.5061C61.1393 19.5061 61.6136 18.6352 61.9609 18.6352C62.4056 18.6352 62.1388 21.1973 62.8079 21.1973C63.3754 21.1973 63.6126 18.428 63.9725 18.428C64.3325 18.428 64.6247 19.2313 64.9593 19.2313C65.3743 19.2313 65.1795 17.8319 65.6242 17.8319C66.1112 17.8319 67.4961 19.4935 68.1186 19.4935C68.3134 19.4935 68.3812 19.3413 68.3812 19.1468C68.3812 18.4111 67.3563 16.7538 67.3563 16.2253C67.3563 16.0858 67.3987 16.0435 67.5511 16.0435C68.0932 16.0435 69.6729 16.7918 70.4225 16.7918C70.6469 16.7918 70.7994 16.6523 70.7994 16.4705ZM69.3553 13.7308C69.3553 13.9803 70.2277 14.5215 70.63 14.5215C70.8672 14.5215 70.9349 14.2044 70.9349 13.8704C70.9349 13.456 70.757 13.4433 70.3928 13.4433C69.9397 13.4391 69.3553 13.5659 69.3553 13.7308ZM66.0985 12.3187C66.0985 12.2342 65.6835 12.1538 65.116 12.1538C64.2139 12.1538 64.341 12.9022 63.6465 12.9022C62.9265 12.9022 63.1044 12.1242 62.1896 12.1242C61.6348 12.1242 61.1224 12.2215 61.1224 12.3441C61.1224 12.509 61.7746 12.4413 61.7746 12.8979C61.7746 13.3799 60.3728 13.5194 60.3728 13.8112C60.3728 13.9084 60.4829 13.9507 60.6226 13.9507C60.9276 13.9507 61.4146 13.8112 61.7619 13.8112C61.9567 13.8112 62.1388 13.8534 62.1388 14.031C62.1388 14.3777 61.3892 14.9992 61.3892 15.2782C61.3892 15.3628 61.4569 15.3882 61.5289 15.3882C61.8085 15.3882 62.2785 14.6821 62.7232 14.6821C63.4601 14.6821 62.9731 16.2464 63.3754 16.2464C63.7904 16.2464 63.6126 14.7075 64.2097 14.7075C64.6967 14.7075 65.0567 15.7729 65.387 15.7729C65.4717 15.7729 65.5395 15.7053 65.5395 15.608C65.5395 15.3163 65.1245 14.7202 65.1245 14.3354C65.1245 14.0987 65.2896 13.9887 65.5141 13.9887C65.8317 13.9887 66.2637 14.1832 66.4966 14.1832C66.5813 14.1832 66.6618 14.1536 66.6618 14.0606C66.6618 13.7266 65.4294 13.3672 65.4294 12.9402C65.4167 12.5132 66.0985 12.5132 66.0985 12.3187Z" fill="#718096"/>
<path d="M90.6845 14.5663C90.6845 15.7966 89.7867 16.7394 88.1604 17.0016C88.3426 17.0142 88.5077 17.0142 88.6729 17.0142C90.5702 17.0142 91.2647 16.156 91.2647 15.4372C91.2647 15.0356 91.0445 14.6762 90.6845 14.5663ZM88.3383 15.9615C88.3383 14.9806 85.9836 14.7312 85.9836 14.5071C85.9836 14.3253 87.3007 14.0209 87.9783 14.0082C86.9365 12.6806 85.4543 12.8159 85.4543 12.5834C85.4543 12.4439 86.5638 12.1691 87.5887 12.1691C88.4484 12.1691 89.2531 12.3636 89.2531 13.0146C89.2531 13.374 88.9609 13.7503 88.9609 14.3042C88.9609 14.6086 89.1133 14.8707 89.5156 14.8707C89.9476 14.8707 90.045 14.4141 90.045 13.9279C90.045 13.5262 89.9773 13.2218 89.9773 13.0273C89.9773 12.4439 90.3754 12.0591 90.9471 12.0591C91.4172 12.0591 91.5315 12.2663 92.2261 12.2663C91.8491 12.4904 91.7136 12.892 91.7136 13.0823C91.7136 13.6657 92.0905 14.0674 92.0905 15.2554C92.0905 17.4413 90.0366 18.2192 87.5252 18.2192C86.8349 18.2192 86.098 18.1642 85.378 18.0543C85.2679 18.0416 85.2383 18.012 85.2383 17.9444C85.2383 17.7626 86.225 17.6653 86.225 16.7817C86.225 16.435 86.1149 16.101 86.1149 15.9784C86.1149 15.9108 86.17 15.8685 86.225 15.8685C86.4326 15.8685 86.8518 16.6718 87.6226 16.6718C87.8259 16.6675 88.3383 16.5999 88.3383 15.9615ZM90.5998 12.9047C90.5998 13.0992 90.7523 13.2514 90.9471 13.2514C91.1419 13.2514 91.2944 13.0992 91.2944 12.9047C91.2944 12.7102 91.1419 12.558 90.9471 12.558C90.7523 12.558 90.5998 12.7102 90.5998 12.9047Z" fill="#718096"/>
<path d="M89.3683 25.6896C89.3683 25.3979 88.6314 25.3725 88.5636 24.5565C88.5509 24.4339 88.5086 24.2098 88.3561 24.2098C88.1062 24.2098 88.301 24.9708 88.0215 24.9708C87.382 24.9708 87.1745 23.7236 86.9416 23.7236C86.8865 23.7236 86.8188 23.7659 86.8188 23.9308C86.8188 24.083 86.8484 24.1802 86.8484 24.3578C86.8484 24.5396 86.8061 24.6622 86.6409 24.6622C86.264 24.6622 85.9337 23.7913 85.6118 23.7913C85.544 23.7913 85.472 23.8335 85.472 23.9012C85.472 24.0661 85.7473 24.3705 85.7473 24.5227C85.7473 24.8567 84.8453 24.6749 84.8453 24.9539C84.8453 25.0808 84.9681 25.1188 85.1375 25.1188C85.4297 25.1188 85.8871 24.9962 86.1242 24.9962C86.264 24.9962 86.4715 25.0258 86.4715 25.2034C86.4715 25.3979 85.9718 25.6473 85.9718 25.8249C85.9718 25.9094 86.0565 25.9475 86.1242 25.9475C86.5012 25.9475 87.1618 25.2964 87.6361 25.2964C87.7208 25.2964 87.9284 25.3387 87.9284 25.4613C87.9284 25.6388 87.4583 25.9602 87.4583 26.2223C87.4583 26.2899 87.5006 26.3745 87.5853 26.3745C87.8352 26.3745 88.1655 25.7234 88.6398 25.7234C88.8219 25.7234 89.0845 25.791 89.2243 25.791C89.3259 25.8037 89.3683 25.7319 89.3683 25.6896ZM89.7282 32.4077C89.9527 31.7143 90.228 31.2324 90.6811 30.484C90.228 30.2473 89.0168 29.7484 89.0168 28.9324C89.0168 27.9769 90.211 27.2285 90.4567 27.2285C90.5668 27.2285 90.5964 27.3258 90.5964 27.5076C90.5964 28.0065 90.3593 28.8098 90.3593 29.2368C90.3593 29.6258 90.6091 29.9978 90.8293 29.9978C91.0665 29.9978 91.7187 29.1649 91.7187 28.3489C91.7187 26.8818 90.427 26.4379 90.0289 26.4379C89.652 26.4379 88.9744 27.0467 87.3778 27.0467C84.3964 27.0467 83.7188 24.0999 83.7188 22.8104C83.7188 22.7554 83.7315 22.7427 83.7442 22.7427C83.8119 22.7427 84.1041 23.1021 85.0485 23.1021C85.5356 23.1021 85.9802 22.9753 86.6875 22.9753C88.3476 22.9753 89.0845 24.1253 90.1136 25.5923C90.7362 25.9813 92.2184 26.6028 92.2184 28.3616C92.2184 29.9132 90.5668 30.7715 90.1687 32.4331C90.8039 32.3654 91.1809 31.2281 91.833 31.2281C92.1676 31.2281 92.3201 31.4903 92.3201 31.9088C92.3201 32.5176 91.9728 33.4309 91.3079 33.9974C91.3206 33.9424 91.3206 33.8706 91.3206 33.7902C91.3206 33.4013 91.1681 32.8516 90.7235 32.8516C90.0332 32.8516 89.8129 33.6 89.4233 34.2215C89.021 32.8094 88.4789 31.5368 87.5091 30.7588C86.5266 29.9682 84.8326 30.3995 84.8326 28.9577C84.8326 28.5688 85.0824 28.0149 85.0824 27.571C85.0824 27.4188 85.0528 27.2793 84.9723 27.1693C86.3063 27.6682 85.832 28.5519 86.6536 29.4693C87.1661 30.0528 88.5806 30.6066 89.3979 32.9996C89.4106 32.932 89.4276 32.7502 89.4276 32.6276C89.4276 30.577 86.7087 28.5688 86.4757 27.7401C88.0554 27.9219 88.3307 28.3066 89.0803 30.3868C89.2285 30.8138 89.7282 31.8792 89.7282 32.4077Z" fill="#718096"/>
<path d="M82.1403 17.7619C81.1705 17.7619 80.531 17.2799 80.531 17.0262C80.531 16.8994 80.6157 16.8191 80.7258 16.8191C81.0307 16.8191 81.6956 17.2884 81.9201 17.2884C81.9751 17.2884 82.0175 17.263 82.0175 17.1784C82.0175 16.929 81.7803 16.5147 81.7803 16.3075C81.7803 16.2525 81.8227 16.2102 81.9031 16.2102C82.2758 16.2102 82.8306 16.3625 83.1271 16.3625C83.2245 16.3625 83.2499 16.3075 83.2499 16.2525C83.2499 15.9481 82.3478 15.352 82.3478 15.1744C82.3478 15.0095 83.4701 14.7601 83.4701 14.4979C83.4701 14.2189 81.9455 14.4134 81.9455 14.1513C81.9455 13.9568 82.2377 13.627 82.2377 13.4748C82.2377 13.4072 82.1827 13.3776 82.0852 13.3776C81.9624 13.3776 81.2933 13.6397 81.018 13.6397C80.8783 13.6397 80.7131 13.6101 80.7131 13.4198C80.7131 13.1027 81.2552 12.7561 82.1022 12.7561C83.4743 12.7561 84.2917 13.6989 84.2917 15.2759C84.2875 17.263 82.8899 17.7619 82.1403 17.7619ZM79.4384 15.1321C79.4384 14.9799 78.8963 14.6882 78.8963 14.5233C78.8963 14.4937 78.9217 14.481 78.964 14.481C79.1165 14.481 79.3833 14.536 79.5908 14.536C79.7729 14.536 79.7983 13.7623 79.9339 13.7623C80.0313 13.7623 80.1964 14.4979 80.3489 14.4979C80.531 14.4979 80.8613 14.2908 81.0011 14.2908C81.0307 14.2908 81.0561 14.3035 81.0561 14.3331C81.0561 14.4303 80.7089 14.8024 80.7089 14.9123C80.7089 15.0391 81.4881 15.1913 81.4881 15.3012C81.4881 15.4408 80.6962 15.4281 80.6962 15.5507C80.6962 15.6479 80.9884 16.0369 80.9884 16.1595C80.9884 16.1891 80.9757 16.2018 80.946 16.2018C80.8359 16.2018 80.4039 16.0073 80.2811 16.0073C80.1287 16.0073 79.883 16.5738 79.756 16.5738C79.7136 16.5738 79.6882 16.5189 79.6882 16.447L79.6586 15.8932C79.6586 15.8382 79.6332 15.7832 79.5612 15.7832C79.396 15.7832 79.0742 15.7705 78.9767 15.7705C78.909 15.7705 78.8793 15.7579 78.8793 15.7283C78.8793 15.6141 79.4384 15.2294 79.4384 15.1321ZM79.0318 17.4025C79.2563 17.4025 79.2944 17.9437 79.3367 18.2608C79.3621 18.4257 79.3918 18.4426 79.4638 18.4426C79.6289 18.4426 79.8915 17.8042 80.0736 17.8042C80.3362 17.8042 81.0434 18.5398 82.225 18.5398C83.9021 18.5398 85.486 17.3645 85.486 15.2843C85.486 13.2761 84.0672 12.1007 82.1149 12.1007C81.1874 12.1007 80.5056 12.5573 80.1456 12.5573C79.9212 12.57 79.5908 12.0162 79.4214 12.0162C79.3537 12.0162 79.2817 12.1515 79.2817 12.3882C79.2817 12.5404 79.2817 13.0266 79.1165 13.0266C78.7819 13.0266 77.4945 12.0711 77.4945 12.4178C77.4945 12.7349 78.3542 13.7073 78.3542 13.9568C78.3542 14.2062 77.5072 14.443 77.5072 14.6079C77.5072 14.9123 78.4093 14.9672 78.4093 15.3562C78.4093 15.7452 77.4648 16.0496 77.4648 16.3371C77.4648 16.5738 78.4093 16.4047 78.4093 16.6965C78.4093 16.9882 77.7147 17.9564 77.7147 18.2312C77.7147 18.2988 77.7274 18.2988 77.7825 18.2988C78.0493 18.3031 78.837 17.4025 79.0318 17.4025Z" fill="#718096"/>
<path d="M72.7534 41.7115C72.7534 41.8341 72.711 41.9737 72.6009 42.1132C72.4485 41.8384 72.0165 41.6988 71.8259 41.6988C70.3987 41.6988 70.9366 43.762 69.412 43.762C68.7725 43.762 68.7174 43.6775 68.4845 43.6775C68.3871 43.6775 68.332 43.7198 68.332 43.8001C68.332 44.1595 68.8445 45.0473 70.2717 45.0473C71.6989 45.0473 73.0753 44.1764 73.0753 43.094C73.0753 42.9122 73.0329 42.722 72.9524 42.5275C73.0075 42.4429 73.1472 42.388 73.2701 42.388C73.4903 42.388 73.6173 42.6374 73.8248 42.6374C74.0493 42.6374 74.2145 42.4725 74.2145 42.2485C74.2145 42.0667 74.1171 41.9441 73.9519 41.8595C74.062 41.7792 74.1467 41.6396 74.1467 41.4874C74.1467 41.2507 73.9815 41.0308 73.702 41.0308C73.5792 41.0308 73.4945 41.0731 73.3971 41.1661C73.3717 40.9167 73.2319 40.6841 72.9651 40.6841C72.7576 40.6841 72.6052 40.8363 72.6052 41.0731C72.6009 41.2972 72.7534 41.479 72.7534 41.7115Z" fill="#718096"/>
<path d="M65.1565 39.1407C66.266 39.4155 66.8208 40.0116 66.9309 40.7177C67.0411 41.3941 67.1808 41.9522 67.4434 42.227C67.7907 42.616 68.4683 42.9584 69.0654 42.9584C69.5651 42.9584 69.9675 42.7936 69.9675 42.3369C69.9675 41.8381 69.2899 40.7177 68.2904 40.7177C68.193 40.7177 68.0702 40.7303 67.9304 40.7303C67.8076 40.7303 67.6255 40.7007 67.5154 40.6077C67.2952 40.4133 67.2232 39.3732 66.8081 38.7517C66.3507 38.0583 65.851 37.8638 65.1734 37.8638C64.6864 37.8638 64.1485 38.126 64.1485 38.5149C64.1443 38.7559 64.2714 38.9208 65.1565 39.1407ZM69.0273 42.2439C68.6122 42.2439 67.9855 41.8 67.9855 41.5506C67.9855 41.3434 68.1803 41.2335 68.3327 41.2335C68.68 41.2335 69.3026 41.6647 69.3026 42.0241C69.3026 42.1171 69.2348 42.2439 69.0273 42.2439Z" fill="#718096"/>
<path d="M67.7446 31.454C67.7446 30.5662 69.8537 30.0969 69.8537 29.0018C69.8537 28.82 69.7859 28.5029 69.6589 28.2662C70.3915 28.6678 70.9336 29.3485 70.9336 29.8981C70.9336 30.8536 69.9342 31.2976 69.9342 31.8937C69.9342 32.5871 71.0014 32.697 71.0014 33.5553C71.0014 34.2613 69.9892 35.0773 69.9892 35.9905C69.9892 36.6966 70.4889 37.2758 71.2512 37.3731C71.0014 37.428 70.7812 37.4703 70.544 37.4703C69.1422 37.4703 67.7023 36.3203 67.7023 34.9505C67.7023 34.274 67.9945 33.6779 68.435 33.2466C68.8246 33.5806 69.21 33.8005 69.4598 33.8005C69.68 33.8005 69.7775 33.6906 69.7775 33.5257C69.7859 33.0183 67.7446 32.5448 67.7446 31.454ZM72.1702 38.4427C71.6959 38.6583 71.5053 38.6245 71.5053 39.1065C71.5053 39.2883 71.463 39.5208 71.463 39.6477C71.463 39.8126 71.4884 39.9098 71.6832 39.9098C72.1829 39.9098 72.9749 39.0642 72.9749 38.3455C72.9749 38.151 72.8648 38.0707 72.7377 38.0707C72.6276 38.0707 72.5048 38.2905 72.1702 38.4427ZM72.1152 37.4492C72.1152 36.8277 70.8235 36.8108 70.8235 35.8722C70.8235 35.6354 70.976 35.2337 71.2809 34.8067C71.4079 35.5255 71.6959 35.9018 72.3227 36.1385C73.5551 36.5951 73.7245 37.2885 73.7245 38.0199C73.7245 39.2672 72.8521 40.8188 70.6033 40.8188C68.7992 40.8188 67.5117 39.2122 67.5117 37.855C67.5117 37.483 67.6091 37.0644 67.8463 37.0644C68.0538 37.0644 68.1216 37.2293 68.291 37.3942C68.9135 38.0199 69.5953 38.1848 70.5779 38.1848C71.463 38.1806 72.1152 37.8212 72.1152 37.4492Z" fill="#718096"/>
<path d="M62.2933 37.7496C62.3272 38.0371 62.1197 38.2993 61.8317 38.3331C61.5437 38.3669 61.2812 38.1597 61.2473 37.8723C61.2134 37.5805 61.4209 37.3226 61.7089 37.2888C61.9969 37.255 62.2595 37.4579 62.2933 37.7496ZM59.7015 38.2908C59.7608 38.7643 60.2012 39.1237 60.701 39.0645C60.8788 39.0434 61.0482 38.9969 61.1584 38.925C61.2685 39.3689 61.6412 39.6522 62.1451 39.5845C62.6576 39.5169 63.0048 39.1153 62.9498 38.6037C62.9371 38.4642 62.9074 38.3796 62.8651 38.2866C62.8651 38.2866 62.9328 38.2781 62.9837 38.2697C63.4834 38.1767 63.8222 37.775 63.7798 37.2888C63.7248 36.7899 63.2759 36.4221 62.81 36.477C62.6279 36.4982 62.4627 36.5701 62.3526 36.6631C62.2256 36.2487 61.836 35.8894 61.3024 35.9739C60.8196 36.0543 60.5019 36.4601 60.5485 36.9802C60.557 37.0647 60.5782 37.162 60.6163 37.255C60.6163 37.255 60.5358 37.2677 60.4765 37.2761C60.0742 37.348 59.638 37.7539 59.7015 38.2908Z" fill="#718096"/>
</g>
<defs>
<clipPath id="clip0">
<rect width="45.5561" height="50.312" fill="white" transform="translate(52.3125 12.0162)"/>
</clipPath>
</defs>
</svg>
