<svg width="149" height="75" viewBox="0 0 149 75" fill="none" xmlns="http://www.w3.org/2000/svg">
<g clip-path="url(#clip0)">
<path d="M81.2383 46.9458H95.5805V45.1795H83.6972V39.5277H92.6229V37.7405H83.6972V32.5341H95.5805V30.7734H81.2383V46.9458Z" fill="#718096"/>
<path d="M88.696 28.1562L86.7539 30.3553L92.8498 28.1562H88.696Z" fill="#718096"/>
<path d="M119.655 45.1795V30.7734H117.414V46.9458H131.912V45.1795H119.655Z" fill="#718096"/>
<path d="M104.875 30.7734L96.7188 46.9458H99.4749L101.562 42.7605H111.343L113.448 46.9458H116.176L108.014 30.7734H104.875ZM102.595 40.7323L106.438 33.0075L110.326 40.7323H102.595Z" fill="#718096"/>
<path d="M73.4574 40.1833C77.1319 39.1944 77.4889 36.4378 77.4708 35.4517C77.2513 32.5621 75.3203 30.7734 71.8515 30.7734H61.7422V46.9458H64.0469V40.1623H70.629L75.4704 46.9458H78.3752C78.3752 46.9458 74.8897 42.3795 73.4574 40.1833ZM71.5375 38.2503H64.0469V32.6882H71.7987C73.5838 32.6882 74.5868 33.5286 74.948 34.5959C75.187 35.3271 75.0342 36.2879 74.6382 36.9407C73.9909 38.0206 72.76 38.2503 71.5375 38.2503Z" fill="#718096"/>
<path d="M47.8932 28.0352C41.3875 28.0352 36.9531 32.6602 36.9531 38.2574C36.9531 44.1501 41.8515 48.3101 47.8932 48.3101C53.9307 48.3101 58.8263 44.2089 58.8263 38.2574C58.8263 32.6602 54.3377 28.0352 47.8932 28.0352ZM47.8154 46.3029C43.3143 46.3029 39.6065 42.6555 39.6065 38.263C39.6065 33.876 43.1393 30.0549 47.9904 30.0549C52.7207 30.0549 56.1979 33.876 56.1979 38.263C56.1965 42.6555 52.3136 46.3029 47.8154 46.3029Z" fill="#718096"/>
<path d="M31.1523 36.4953H32.8152L35.834 30.7734H33.4056L31.1523 36.4953Z" fill="#718096"/>
<path d="M23.0209 45.1795V30.7734H20.7773V46.9458H35.2751V45.1795H23.0209Z" fill="#718096"/>
</g>
<defs>
<clipPath id="clip0">
<rect width="111.137" height="20.275" fill="white" transform="translate(20.7773 28.0352)"/>
</clipPath>
</defs>
</svg>
