<svg width="149" height="75" viewBox="0 0 149 75" fill="none" xmlns="http://www.w3.org/2000/svg">
<g clip-path="url(#clip0)">
<g clip-path="url(#clip1)">
<path d="M66.5008 38.6528C66.5008 39.2833 66.2422 39.469 65.2594 39.8209C64.4741 40.1288 63.8722 40.2607 63.6935 40.2607C63.3643 40.2607 63.2186 40.0066 63.2186 39.4788C63.2186 38.2227 63.5618 36.6979 64.8362 36.6979C66.0118 36.7028 66.5008 38.0272 66.5008 38.6528ZM53.7669 44.1364C53.7669 44.0338 53.7528 43.9653 53.701 43.9165C53.5694 43.7796 53.0803 43.6965 52.8358 43.4424C52.6571 43.2567 52.5443 42.9341 52.5443 42.1863V39.3126C52.5443 39.0927 52.596 38.9558 52.8076 38.9558H55.6149C55.8265 38.9558 55.8735 39.0927 55.8735 39.3126V42.1815C55.8735 42.9292 55.7607 43.2518 55.582 43.4375C55.3374 43.6916 54.8484 43.7747 54.7167 43.9116C54.665 43.9653 54.6509 44.0289 54.6509 44.1315C54.6509 44.5714 54.7167 45.0161 54.7826 45.0796C54.8484 45.1481 54.9472 45.1627 55.1588 45.1627H59.7482C59.9598 45.1627 60.0586 45.1481 60.1244 45.0796C60.1903 45.0112 60.2561 44.5714 60.2561 44.1315C60.2561 44.0289 60.2373 43.9604 60.1903 43.9116C60.0774 43.7943 59.5696 43.6916 59.325 43.4375C59.1463 43.2518 59.0476 42.895 59.0476 42.3183V34.396C59.0476 33.9903 59.1463 33.7166 59.2921 33.5651C59.5554 33.2914 60.0774 33.2425 60.1903 33.1253C60.2373 33.0764 60.2561 32.9737 60.2561 32.8907C60.2561 32.5876 60.1903 32.1282 60.1244 32.0598C60.0586 31.9914 59.9928 31.9767 59.7482 31.9767H55.3233C55.1447 31.9767 55.0788 31.9963 55.0318 32.0452C54.9848 32.094 54.933 32.4508 54.933 32.9102C54.933 32.9933 54.9519 33.0959 54.9848 33.1301C55.0647 33.2132 55.4738 33.3501 55.6384 33.5211C55.8171 33.7068 55.8829 33.9121 55.8829 34.4888V36.7468C55.8829 36.8298 55.803 36.952 55.6854 36.952H52.7465C52.6336 36.952 52.549 36.8347 52.549 36.7468V34.4888C52.549 33.9121 52.6148 33.7068 52.7935 33.5211C52.9581 33.3501 53.3625 33.2181 53.4471 33.1301C53.48 33.0959 53.4988 32.9933 53.4988 32.9102C53.4988 32.4508 53.4471 32.094 53.4001 32.0452C53.3531 31.9914 53.2872 31.9767 53.1085 31.9767H48.6836C48.4391 31.9767 48.3733 31.9963 48.3074 32.0598C48.2416 32.1282 48.1758 32.5876 48.1758 32.8907C48.1758 32.9737 48.1946 33.0764 48.2416 33.1253C48.3545 33.2425 48.8764 33.2963 49.1398 33.5651C49.2855 33.7166 49.3843 33.9903 49.3843 34.396V42.3183C49.3843 42.895 49.2855 43.2518 49.1068 43.4375C48.8623 43.6916 48.3545 43.7943 48.2416 43.9116C48.1899 43.9653 48.1758 44.0289 48.1758 44.1315C48.1758 44.5714 48.2416 45.0161 48.3074 45.0796C48.3733 45.1481 48.4391 45.1627 48.6836 45.1627H53.2731C53.4847 45.1627 53.5835 45.1481 53.6493 45.0796C53.701 45.0161 53.7669 44.5762 53.7669 44.1364ZM68.9366 43.8969C69.4116 43.4033 69.5244 43.1149 69.5244 42.8803C69.5244 42.6262 69.4586 42.4209 69.2611 42.2206C69.0495 42.0006 68.8708 41.9664 68.7062 41.9664C68.4758 41.9664 68.377 42.0348 68.2313 42.1863C67.5118 42.9341 66.5996 43.3398 65.4898 43.3398C64.3659 43.3398 63.6606 42.5578 63.6606 42.0642C63.6606 41.9273 63.7734 41.81 64.0697 41.7269C67.2062 40.7104 68.5134 40.031 69.0025 39.5228C69.2799 39.254 69.3927 38.9314 69.3927 38.643C69.3927 37.3528 67.5965 35.0606 64.8362 35.0606C63.6935 35.0606 62.5367 35.5347 61.6715 36.434C60.8063 37.3332 60.2655 38.6039 60.2655 40.3389C60.2655 42.0006 60.7734 43.154 61.6527 44.0729C62.5367 44.9868 63.8064 45.4462 65.1983 45.4462C66.6184 45.4413 67.9538 44.9135 68.9366 43.8969ZM74.0434 35.6324C74.0434 35.4125 73.9305 35.3294 73.7518 35.3294H70.6012C70.4226 35.3294 70.3567 35.3294 70.305 35.3979C70.2392 35.4663 70.178 35.9257 70.178 36.2287C70.178 36.3118 70.211 36.3802 70.2439 36.434C70.3567 36.5855 70.6012 36.6392 70.8176 36.825C70.9633 36.9765 71.0292 37.299 71.0292 37.7926V42.3232C71.0292 42.8999 70.9633 43.2762 70.7987 43.4424C70.5542 43.6965 70.1451 43.8138 70.0323 43.936C69.9993 43.9702 69.9852 44.0386 69.9852 44.1559C69.9852 44.5958 70.0511 45.021 70.1169 45.0894C70.1686 45.1383 70.2486 45.1725 70.4273 45.1725H74.6217C74.8004 45.1725 74.8804 45.1383 74.9321 45.0894C74.9979 45.021 75.045 44.5958 75.045 44.1559C75.045 44.0386 75.0309 43.9702 74.9979 43.936C74.8851 43.8187 74.5089 43.7014 74.2644 43.4424C74.0998 43.2713 74.0528 42.8999 74.0528 42.3232L74.0434 35.6324ZM72.2988 31.356C71.4006 31.356 70.6671 32.0843 70.6671 33.0031C70.6671 33.9365 71.4006 34.6648 72.2988 34.6648C73.2157 34.6648 73.9493 33.9365 73.9493 33.0031C73.9493 32.0843 73.211 31.356 72.2988 31.356ZM84.9528 37.9588C84.9528 36.0576 84.0076 35.09 82.5217 35.09C81.821 35.09 81.0687 35.3245 80.3163 35.8035C80.0577 35.9746 79.973 36.0234 79.9072 36.0234C79.6439 36.0234 79.8272 35.3294 79.3523 35.3294H76.4792C76.3005 35.3294 76.2488 35.3294 76.1876 35.3979C76.1077 35.4809 76.0419 35.9257 76.0419 36.2287C76.0419 36.3118 76.0607 36.3802 76.1077 36.434C76.2394 36.5708 76.4839 36.6197 76.6767 36.825C76.8224 36.9765 76.8883 37.299 76.8883 37.7926V42.3232C76.8883 42.8999 76.8413 43.2762 76.6767 43.4424C76.4463 43.677 76.056 43.8138 75.9431 43.936C75.9102 43.9702 75.8914 44.0386 75.8914 44.1559C75.8914 44.5958 75.9431 45.021 76.0042 45.0894C76.0513 45.1383 76.15 45.1725 76.3287 45.1725H80.4432C80.6407 45.1725 80.7019 45.1383 80.7536 45.0894C80.8335 45.0063 80.9041 44.5958 80.9041 44.1559C80.9041 44.0386 80.8853 43.9702 80.8523 43.936C80.7207 43.7992 80.3445 43.6819 80.1188 43.4424C79.9542 43.2713 79.8743 42.8999 79.8743 42.3232V38.9803C79.8743 37.6069 80.6078 37.1817 81.1486 37.1817C81.7035 37.1817 82.0138 37.6069 82.0138 38.5062V43.2078C82.0138 44.4638 82.7803 45.2947 84.1675 45.2947C85.7005 45.2947 86.3541 44.1413 86.3541 43.9018C86.3541 43.6965 86.0437 43.2909 85.8462 43.2909C85.6158 43.2909 85.2914 43.5939 85.1268 43.5939C85.0139 43.5939 84.9481 43.5108 84.9481 43.2371V37.9588H84.9528ZM115.208 43.8969C115.683 43.4033 115.795 43.1149 115.795 42.8803C115.795 42.6262 115.73 42.4209 115.537 42.2206C115.325 42.0006 115.142 41.9664 114.982 41.9664C114.752 41.9664 114.653 42.0348 114.507 42.1863C113.788 42.9341 112.875 43.3398 111.766 43.3398C110.637 43.3398 109.936 42.5578 109.936 42.0642C109.936 41.9273 110.049 41.81 110.345 41.7269C113.482 40.7104 114.784 40.031 115.278 39.5228C115.556 39.254 115.668 38.9314 115.668 38.643C115.668 37.3528 113.872 35.0606 111.112 35.0606C109.969 35.0606 108.808 35.5347 107.943 36.434C107.077 37.3332 106.541 38.6039 106.541 40.3389C106.541 42.0006 107.049 43.154 107.928 44.0729C108.812 44.9868 110.082 45.4462 111.469 45.4462C112.885 45.4413 114.225 44.9135 115.208 43.8969ZM112.772 38.6528C112.772 39.2833 112.513 39.469 111.53 39.8209C110.745 40.1288 110.143 40.2607 109.96 40.2607C109.635 40.2607 109.485 40.0066 109.485 39.4788C109.485 38.2227 109.828 36.6979 111.103 36.6979C112.283 36.7028 112.772 38.0272 112.772 38.6528ZM95.1381 43.8969C95.613 43.4033 95.7259 43.1149 95.7259 42.8803C95.7259 42.6262 95.66 42.4209 95.4625 42.2206C95.2509 42.0006 95.0722 41.9664 94.9076 41.9664C94.6772 41.9664 94.5785 42.0348 94.4327 42.1863C93.7133 42.9341 92.801 43.3398 91.6912 43.3398C90.5674 43.3398 89.862 42.5578 89.862 42.0642C89.862 41.9273 89.9749 41.81 90.2711 41.7269C93.4076 40.7104 94.7102 40.031 95.1992 39.5228C95.4766 39.254 95.5895 38.9314 95.5895 38.643C95.5895 37.3528 93.7932 35.0606 91.0329 35.0606C89.8903 35.0606 88.7335 35.5347 87.8682 36.434C87.003 37.3332 86.4622 38.6039 86.4622 40.3389C86.4622 42.0006 86.9701 43.154 87.8494 44.0729C88.7335 44.9868 90.0031 45.4462 91.395 45.4462C92.8198 45.4413 94.16 44.9135 95.1381 43.8969ZM92.707 38.6528C92.707 39.2833 92.4436 39.469 91.4655 39.8209C90.6802 40.1288 90.0783 40.2607 89.8997 40.2607C89.5705 40.2607 89.4247 40.0066 89.4247 39.4788C89.4247 38.2227 89.768 36.6979 91.0423 36.6979C92.2179 36.7028 92.707 38.0272 92.707 38.6528ZM125.393 37.9588C125.393 36.0576 124.448 35.09 122.962 35.09C122.261 35.09 121.509 35.3245 120.756 35.8035C120.493 35.9746 120.413 36.0234 120.347 36.0234C120.084 36.0234 120.267 35.3294 119.792 35.3294H116.919C116.741 35.3294 116.689 35.3294 116.623 35.3979C116.543 35.4809 116.477 35.9257 116.477 36.2287C116.477 36.3118 116.491 36.3802 116.543 36.434C116.675 36.5708 116.919 36.6197 117.117 36.825C117.263 36.9765 117.328 37.299 117.328 37.7926V42.3232C117.328 42.8999 117.281 43.2762 117.117 43.4424C116.886 43.677 116.496 43.8138 116.383 43.936C116.35 43.9702 116.336 44.0386 116.336 44.1559C116.336 44.5958 116.383 45.021 116.449 45.0894C116.501 45.1383 116.6 45.1725 116.778 45.1725H120.893C121.09 45.1725 121.156 45.1383 121.203 45.0894C121.283 45.0063 121.349 44.5958 121.349 44.1559C121.349 44.0386 121.335 43.9702 121.302 43.936C121.17 43.7992 120.794 43.6819 120.568 43.4424C120.404 43.2713 120.324 42.8999 120.324 42.3232V38.9803C120.324 37.6069 121.057 37.1817 121.598 37.1817C122.153 37.1817 122.463 37.6069 122.463 38.5062V43.2078C122.463 44.4638 123.23 45.2947 124.617 45.2947C126.15 45.2947 126.804 44.1413 126.804 43.9018C126.804 43.6965 126.493 43.2909 126.296 43.2909C126.065 43.2909 125.741 43.5939 125.576 43.5939C125.463 43.5939 125.398 43.5108 125.398 43.2371L125.393 37.9588ZM99.7605 31.6639H96.624C96.4265 31.6639 96.3466 31.6639 96.2995 31.747C96.2337 31.8301 96.1867 32.2553 96.1867 32.5437C96.1867 32.6463 96.2055 32.7147 96.2384 32.7783C96.3513 32.8956 96.7933 33.0177 96.9908 33.2181C97.1554 33.3892 97.2353 33.7264 97.2353 35.0166V41.8051C97.2353 42.9439 97.1225 43.3007 96.9908 43.4326C96.7604 43.6672 96.3701 43.804 96.2572 43.9262C96.2243 43.9604 96.2102 44.0289 96.2102 44.1462C96.2102 44.586 96.2572 45.0112 96.3231 45.0796C96.3748 45.1285 96.4359 45.1627 96.6522 45.1627H100.753C100.964 45.1627 101.03 45.1285 101.077 45.0796C101.143 45.0112 101.223 44.586 101.223 44.1462C101.223 44.0289 101.209 43.9604 101.157 43.9262C101.044 43.8089 100.649 43.6721 100.438 43.4326C100.259 43.2616 100.193 42.8901 100.193 42.3134V41.9224C100.193 41.7025 100.259 41.6341 100.616 41.2578C100.781 41.1062 100.927 40.989 101.04 40.989C101.204 40.989 101.331 41.1062 103.127 44.8744C103.24 45.1138 103.292 45.1627 103.583 45.1627H106.245C106.442 45.1627 106.508 45.1285 106.555 45.0796C106.621 45.0112 106.687 44.586 106.687 44.1462C106.687 44.0289 106.673 43.9604 106.64 43.9262C106.527 43.8089 105.841 43.721 105.695 43.4326C103.33 39.2735 103.264 39.1367 103.264 38.8874C103.264 38.6675 104.308 37.5825 105.173 36.8689C105.728 36.4095 106.085 36.7174 106.085 36.1749C106.085 35.5445 106.005 35.3245 105.888 35.3245H101.938C101.594 35.3245 101.561 35.5298 101.561 36.2922C101.561 36.5464 102.248 36.5806 102.248 36.9374C102.248 37.2404 100.583 38.907 100.306 38.907C100.207 38.907 100.193 38.8385 100.193 38.5502V32.138C100.184 31.8643 100.005 31.6639 99.7605 31.6639Z" fill="#718096"/>
<path d="M36.1084 29L38.2762 35.852L45.2169 35.8765L39.6164 40.1382L41.7371 47.0049L36.1084 42.7822L30.4797 47L32.6005 40.1333L27 35.8765L33.9407 35.852L36.1084 29Z" fill="#718096"/>
<path d="M125.4 31.3021C125.673 31.3021 125.936 31.3754 126.19 31.5171C126.444 31.6589 126.642 31.8641 126.783 32.1281C126.929 32.3969 126.999 32.6754 126.999 32.9638C126.999 33.2521 126.929 33.5307 126.788 33.7946C126.646 34.0585 126.449 34.2638 126.195 34.4104C125.941 34.557 125.678 34.6304 125.4 34.6304C125.123 34.6304 124.855 34.557 124.601 34.4104C124.347 34.2638 124.15 34.0585 124.008 33.7946C123.867 33.5307 123.797 33.2521 123.797 32.9638C123.797 32.6705 123.867 32.392 124.013 32.1281C124.159 31.8592 124.356 31.6589 124.61 31.5171C124.86 31.3754 125.123 31.3021 125.4 31.3021ZM125.4 31.6295C125.179 31.6295 124.968 31.6882 124.766 31.8006C124.563 31.913 124.403 32.0792 124.286 32.2942C124.168 32.5093 124.112 32.7341 124.112 32.9687C124.112 33.2033 124.168 33.4232 124.281 33.6333C124.394 33.8435 124.554 34.0097 124.756 34.127C124.958 34.2443 125.175 34.3029 125.396 34.3029C125.621 34.3029 125.833 34.2443 126.035 34.127C126.237 34.0097 126.397 33.8435 126.51 33.6333C126.623 33.4232 126.689 33.1984 126.689 32.9687C126.689 32.7341 126.632 32.5093 126.515 32.2942C126.397 32.0792 126.237 31.9179 126.035 31.8006C125.833 31.6882 125.621 31.6295 125.4 31.6295ZM124.676 33.8582V32.0938H125.019C125.344 32.0938 125.523 32.0938 125.565 32.0987C125.678 32.1085 125.767 32.1329 125.828 32.172C125.894 32.2062 125.946 32.2649 125.988 32.3431C126.03 32.4164 126.054 32.5044 126.054 32.5972C126.054 32.7243 126.012 32.8318 125.932 32.9247C125.852 33.0127 125.739 33.0713 125.593 33.0909C125.645 33.1104 125.683 33.1348 125.711 33.1593C125.739 33.1837 125.777 33.2277 125.824 33.2961C125.838 33.3157 125.88 33.3841 125.951 33.5112L126.153 33.8679H125.725L125.584 33.5796C125.49 33.389 125.41 33.2668 125.344 33.2179C125.283 33.169 125.203 33.1397 125.104 33.1397H125.015V33.863L124.676 33.8582ZM125.019 32.8563H125.161C125.358 32.8563 125.485 32.8465 125.532 32.8318C125.579 32.8172 125.621 32.7878 125.645 32.7487C125.673 32.7096 125.687 32.6608 125.687 32.6119C125.687 32.563 125.673 32.519 125.645 32.4799C125.617 32.4408 125.579 32.4115 125.532 32.3969C125.48 32.3773 125.358 32.3724 125.161 32.3724H125.019V32.8563Z" fill="#718096"/>
</g>
</g>
<defs>
<clipPath id="clip0">
<rect width="149" height="75" fill="white"/>
</clipPath>
<clipPath id="clip1">
<rect width="100" height="18" fill="white" transform="translate(27 29)"/>
</clipPath>
</defs>
</svg>
